<?xml version="1.0" encoding="utf-8"?>
<svg xmlns="http://www.w3.org/2000/svg" xmlns:xlink="http://www.w3.org/1999/xlink" width="800" height="500" viewBox="0 0 3200 2000">
<defs>
  <clipPath id="clip190">
    <rect x="0" y="0" width="3200" height="2000"/>
  </clipPath>
</defs>
<path clip-path="url(#clip190)" d="M0 2000 L3200 2000 L3200 0 L0 0  Z" fill="#ffffff" fill-rule="evenodd" fill-opacity="1"/>
<defs>
  <clipPath id="clip191">
    <rect x="237" y="119" width="2916" height="1706"/>
  </clipPath>
</defs>
<path clip-path="url(#clip190)" d="M237.419 1824.31 L3152.76 1824.31 L3152.76 119.692 L237.419 119.692  Z" fill="#ffffff" fill-rule="evenodd" fill-opacity="1"/>
<polyline clip-path="url(#clip191)" style="stroke:#000000; stroke-linecap:round; stroke-linejoin:round; stroke-width:2; stroke-opacity:0.1; fill:none" points="319.929,1824.31 319.929,119.692 "/>
<polyline clip-path="url(#clip191)" style="stroke:#000000; stroke-linecap:round; stroke-linejoin:round; stroke-width:2; stroke-opacity:0.1; fill:none" points="1007.51,1824.31 1007.51,119.692 "/>
<polyline clip-path="url(#clip191)" style="stroke:#000000; stroke-linecap:round; stroke-linejoin:round; stroke-width:2; stroke-opacity:0.1; fill:none" points="1695.09,1824.31 1695.09,119.692 "/>
<polyline clip-path="url(#clip191)" style="stroke:#000000; stroke-linecap:round; stroke-linejoin:round; stroke-width:2; stroke-opacity:0.1; fill:none" points="2382.67,1824.31 2382.67,119.692 "/>
<polyline clip-path="url(#clip191)" style="stroke:#000000; stroke-linecap:round; stroke-linejoin:round; stroke-width:2; stroke-opacity:0.1; fill:none" points="3070.25,1824.31 3070.25,119.692 "/>
<polyline clip-path="url(#clip191)" style="stroke:#000000; stroke-linecap:round; stroke-linejoin:round; stroke-width:2; stroke-opacity:0.1; fill:none" points="237.419,1776.07 3152.76,1776.07 "/>
<polyline clip-path="url(#clip191)" style="stroke:#000000; stroke-linecap:round; stroke-linejoin:round; stroke-width:2; stroke-opacity:0.1; fill:none" points="237.419,1369.97 3152.76,1369.97 "/>
<polyline clip-path="url(#clip191)" style="stroke:#000000; stroke-linecap:round; stroke-linejoin:round; stroke-width:2; stroke-opacity:0.1; fill:none" points="237.419,963.879 3152.76,963.879 "/>
<polyline clip-path="url(#clip191)" style="stroke:#000000; stroke-linecap:round; stroke-linejoin:round; stroke-width:2; stroke-opacity:0.1; fill:none" points="237.419,557.786 3152.76,557.786 "/>
<polyline clip-path="url(#clip191)" style="stroke:#000000; stroke-linecap:round; stroke-linejoin:round; stroke-width:2; stroke-opacity:0.1; fill:none" points="237.419,151.692 3152.76,151.692 "/>
<polyline clip-path="url(#clip190)" style="stroke:#000000; stroke-linecap:round; stroke-linejoin:round; stroke-width:4; stroke-opacity:1; fill:none" points="237.419,1824.31 3152.76,1824.31 "/>
<polyline clip-path="url(#clip190)" style="stroke:#000000; stroke-linecap:round; stroke-linejoin:round; stroke-width:4; stroke-opacity:1; fill:none" points="319.929,1824.31 319.929,1805.41 "/>
<polyline clip-path="url(#clip190)" style="stroke:#000000; stroke-linecap:round; stroke-linejoin:round; stroke-width:4; stroke-opacity:1; fill:none" points="1007.51,1824.31 1007.51,1805.41 "/>
<polyline clip-path="url(#clip190)" style="stroke:#000000; stroke-linecap:round; stroke-linejoin:round; stroke-width:4; stroke-opacity:1; fill:none" points="1695.09,1824.31 1695.09,1805.41 "/>
<polyline clip-path="url(#clip190)" style="stroke:#000000; stroke-linecap:round; stroke-linejoin:round; stroke-width:4; stroke-opacity:1; fill:none" points="2382.67,1824.31 2382.67,1805.41 "/>
<polyline clip-path="url(#clip190)" style="stroke:#000000; stroke-linecap:round; stroke-linejoin:round; stroke-width:4; stroke-opacity:1; fill:none" points="3070.25,1824.31 3070.25,1805.41 "/>
<path clip-path="url(#clip190)" d="M319.929 1861.63 Q316.318 1861.63 314.489 1865.19 Q312.684 1868.73 312.684 1875.86 Q312.684 1882.97 314.489 1886.54 Q316.318 1890.08 319.929 1890.08 Q323.563 1890.08 325.369 1886.54 Q327.197 1882.97 327.197 1875.86 Q327.197 1868.73 325.369 1865.19 Q323.563 1861.63 319.929 1861.63 M319.929 1857.92 Q325.739 1857.92 328.795 1862.53 Q331.873 1867.11 331.873 1875.86 Q331.873 1884.59 328.795 1889.2 Q325.739 1893.78 319.929 1893.78 Q314.119 1893.78 311.04 1889.2 Q307.984 1884.59 307.984 1875.86 Q307.984 1867.11 311.04 1862.53 Q314.119 1857.92 319.929 1857.92 Z" fill="#000000" fill-rule="nonzero" fill-opacity="1" /><path clip-path="url(#clip190)" d="M982.196 1889.17 L989.835 1889.17 L989.835 1862.81 L981.525 1864.48 L981.525 1860.22 L989.788 1858.55 L994.464 1858.55 L994.464 1889.17 L1002.1 1889.17 L1002.1 1893.11 L982.196 1893.11 L982.196 1889.17 Z" fill="#000000" fill-rule="nonzero" fill-opacity="1" /><path clip-path="url(#clip190)" d="M1021.55 1861.63 Q1017.94 1861.63 1016.11 1865.19 Q1014.3 1868.73 1014.3 1875.86 Q1014.3 1882.97 1016.11 1886.54 Q1017.94 1890.08 1021.55 1890.08 Q1025.18 1890.08 1026.99 1886.54 Q1028.82 1882.97 1028.82 1875.86 Q1028.82 1868.73 1026.99 1865.19 Q1025.18 1861.63 1021.55 1861.63 M1021.55 1857.92 Q1027.36 1857.92 1030.41 1862.53 Q1033.49 1867.11 1033.49 1875.86 Q1033.49 1884.59 1030.41 1889.2 Q1027.36 1893.78 1021.55 1893.78 Q1015.74 1893.78 1012.66 1889.2 Q1009.6 1884.59 1009.6 1875.86 Q1009.6 1867.11 1012.66 1862.53 Q1015.74 1857.92 1021.55 1857.92 Z" fill="#000000" fill-rule="nonzero" fill-opacity="1" /><path clip-path="url(#clip190)" d="M1673.86 1889.17 L1690.18 1889.17 L1690.18 1893.11 L1668.24 1893.11 L1668.24 1889.17 Q1670.9 1886.42 1675.48 1881.79 Q1680.09 1877.14 1681.27 1875.8 Q1683.51 1873.27 1684.39 1871.54 Q1685.3 1869.78 1685.3 1868.09 Q1685.3 1865.33 1683.35 1863.6 Q1681.43 1861.86 1678.33 1861.86 Q1676.13 1861.86 1673.68 1862.62 Q1671.25 1863.39 1668.47 1864.94 L1668.47 1860.22 Q1671.29 1859.08 1673.75 1858.5 Q1676.2 1857.92 1678.24 1857.92 Q1683.61 1857.92 1686.8 1860.61 Q1690 1863.3 1690 1867.79 Q1690 1869.92 1689.18 1871.84 Q1688.4 1873.73 1686.29 1876.33 Q1685.71 1877 1682.61 1880.22 Q1679.51 1883.41 1673.86 1889.17 Z" fill="#000000" fill-rule="nonzero" fill-opacity="1" /><path clip-path="url(#clip190)" d="M1709.99 1861.63 Q1706.38 1861.63 1704.56 1865.19 Q1702.75 1868.73 1702.75 1875.86 Q1702.75 1882.97 1704.56 1886.54 Q1706.38 1890.08 1709.99 1890.08 Q1713.63 1890.08 1715.43 1886.54 Q1717.26 1882.97 1717.26 1875.86 Q1717.26 1868.73 1715.43 1865.19 Q1713.63 1861.63 1709.99 1861.63 M1709.99 1857.92 Q1715.81 1857.92 1718.86 1862.53 Q1721.94 1867.11 1721.94 1875.86 Q1721.94 1884.59 1718.86 1889.2 Q1715.81 1893.78 1709.99 1893.78 Q1704.18 1893.78 1701.11 1889.2 Q1698.05 1884.59 1698.05 1875.86 Q1698.05 1867.11 1701.11 1862.53 Q1704.18 1857.92 1709.99 1857.92 Z" fill="#000000" fill-rule="nonzero" fill-opacity="1" /><path clip-path="url(#clip190)" d="M2371.51 1874.48 Q2374.87 1875.19 2376.74 1877.46 Q2378.64 1879.73 2378.64 1883.06 Q2378.64 1888.18 2375.12 1890.98 Q2371.6 1893.78 2365.12 1893.78 Q2362.94 1893.78 2360.63 1893.34 Q2358.34 1892.92 2355.88 1892.07 L2355.88 1887.55 Q2357.83 1888.69 2360.14 1889.27 Q2362.46 1889.85 2364.98 1889.85 Q2369.38 1889.85 2371.67 1888.11 Q2373.99 1886.37 2373.99 1883.06 Q2373.99 1880.01 2371.83 1878.3 Q2369.7 1876.56 2365.88 1876.56 L2361.86 1876.56 L2361.86 1872.72 L2366.07 1872.72 Q2369.52 1872.72 2371.35 1871.35 Q2373.18 1869.96 2373.18 1867.37 Q2373.18 1864.71 2371.28 1863.3 Q2369.4 1861.86 2365.88 1861.86 Q2363.96 1861.86 2361.76 1862.28 Q2359.57 1862.69 2356.93 1863.57 L2356.93 1859.41 Q2359.59 1858.67 2361.9 1858.3 Q2364.24 1857.92 2366.3 1857.92 Q2371.63 1857.92 2374.73 1860.36 Q2377.83 1862.76 2377.83 1866.88 Q2377.83 1869.75 2376.19 1871.74 Q2374.54 1873.71 2371.51 1874.48 Z" fill="#000000" fill-rule="nonzero" fill-opacity="1" /><path clip-path="url(#clip190)" d="M2397.5 1861.63 Q2393.89 1861.63 2392.07 1865.19 Q2390.26 1868.73 2390.26 1875.86 Q2390.26 1882.97 2392.07 1886.54 Q2393.89 1890.08 2397.5 1890.08 Q2401.14 1890.08 2402.94 1886.54 Q2404.77 1882.97 2404.77 1875.86 Q2404.77 1868.73 2402.94 1865.19 Q2401.14 1861.63 2397.5 1861.63 M2397.5 1857.92 Q2403.32 1857.92 2406.37 1862.53 Q2409.45 1867.11 2409.45 1875.86 Q2409.45 1884.59 2406.37 1889.2 Q2403.32 1893.78 2397.5 1893.78 Q2391.69 1893.78 2388.62 1889.2 Q2385.56 1884.59 2385.56 1875.86 Q2385.56 1867.11 2388.62 1862.53 Q2391.69 1857.92 2397.5 1857.92 Z" fill="#000000" fill-rule="nonzero" fill-opacity="1" /><path clip-path="url(#clip190)" d="M3058.42 1862.62 L3046.61 1881.07 L3058.42 1881.07 L3058.42 1862.62 M3057.19 1858.55 L3063.07 1858.55 L3063.07 1881.07 L3068 1881.07 L3068 1884.96 L3063.07 1884.96 L3063.07 1893.11 L3058.42 1893.11 L3058.42 1884.96 L3042.82 1884.96 L3042.82 1880.45 L3057.19 1858.55 Z" fill="#000000" fill-rule="nonzero" fill-opacity="1" /><path clip-path="url(#clip190)" d="M3085.73 1861.63 Q3082.12 1861.63 3080.29 1865.19 Q3078.49 1868.73 3078.49 1875.86 Q3078.49 1882.97 3080.29 1886.54 Q3082.12 1890.08 3085.73 1890.08 Q3089.37 1890.08 3091.17 1886.54 Q3093 1882.97 3093 1875.86 Q3093 1868.73 3091.17 1865.19 Q3089.37 1861.63 3085.73 1861.63 M3085.73 1857.92 Q3091.54 1857.92 3094.6 1862.53 Q3097.68 1867.11 3097.68 1875.86 Q3097.68 1884.59 3094.6 1889.2 Q3091.54 1893.78 3085.73 1893.78 Q3079.92 1893.78 3076.84 1889.2 Q3073.79 1884.59 3073.79 1875.86 Q3073.79 1867.11 3076.84 1862.53 Q3079.92 1857.92 3085.73 1857.92 Z" fill="#000000" fill-rule="nonzero" fill-opacity="1" /><path clip-path="url(#clip190)" d="M1514.64 1958.48 L1514.64 1975.89 L1524.95 1975.89 Q1530.14 1975.89 1532.62 1973.76 Q1535.13 1971.59 1535.13 1967.17 Q1535.13 1962.71 1532.62 1960.61 Q1530.14 1958.48 1524.95 1958.48 L1514.64 1958.48 M1514.64 1938.94 L1514.64 1953.26 L1524.15 1953.26 Q1528.86 1953.26 1531.15 1951.51 Q1533.48 1949.73 1533.48 1946.1 Q1533.48 1942.5 1531.15 1940.72 Q1528.86 1938.94 1524.15 1938.94 L1514.64 1938.94 M1508.21 1933.65 L1524.63 1933.65 Q1531.98 1933.65 1535.96 1936.71 Q1539.94 1939.76 1539.94 1945.4 Q1539.94 1949.76 1537.9 1952.34 Q1535.87 1954.92 1531.92 1955.55 Q1536.66 1956.57 1539.27 1959.82 Q1541.91 1963.03 1541.91 1967.87 Q1541.91 1974.24 1537.58 1977.7 Q1533.26 1981.17 1525.27 1981.17 L1508.21 1981.17 L1508.21 1933.65 Z" fill="#000000" fill-rule="nonzero" fill-opacity="1" /><path clip-path="url(#clip190)" d="M1558.34 1975.83 L1558.34 1994.73 L1552.45 1994.73 L1552.45 1945.53 L1558.34 1945.53 L1558.34 1950.94 Q1560.18 1947.75 1562.98 1946.23 Q1565.82 1944.67 1569.73 1944.67 Q1576.22 1944.67 1580.27 1949.82 Q1584.34 1954.98 1584.34 1963.38 Q1584.34 1971.78 1580.27 1976.94 Q1576.22 1982.1 1569.73 1982.1 Q1565.82 1982.1 1562.98 1980.57 Q1560.18 1979.01 1558.34 1975.83 M1578.26 1963.38 Q1578.26 1956.92 1575.59 1953.26 Q1572.95 1949.57 1568.3 1949.57 Q1563.65 1949.57 1560.98 1953.26 Q1558.34 1956.92 1558.34 1963.38 Q1558.34 1969.84 1560.98 1973.53 Q1563.65 1977.2 1568.3 1977.2 Q1572.95 1977.2 1575.59 1973.53 Q1578.26 1969.84 1578.26 1963.38 Z" fill="#000000" fill-rule="nonzero" fill-opacity="1" /><path clip-path="url(#clip190)" d="M1624.54 1961.89 L1624.54 1964.75 L1597.61 1964.75 Q1597.99 1970.8 1601.24 1973.98 Q1604.52 1977.13 1610.34 1977.13 Q1613.72 1977.13 1616.87 1976.3 Q1620.05 1975.48 1623.17 1973.82 L1623.17 1979.36 Q1620.02 1980.7 1616.71 1981.4 Q1613.4 1982.1 1609.99 1982.1 Q1601.46 1982.1 1596.47 1977.13 Q1591.5 1972.17 1591.5 1963.7 Q1591.5 1954.95 1596.21 1949.82 Q1600.95 1944.67 1608.98 1944.67 Q1616.17 1944.67 1620.34 1949.31 Q1624.54 1953.93 1624.54 1961.89 M1618.68 1960.17 Q1618.62 1955.36 1615.98 1952.5 Q1613.37 1949.63 1609.04 1949.63 Q1604.14 1949.63 1601.18 1952.4 Q1598.25 1955.17 1597.8 1960.2 L1618.68 1960.17 Z" fill="#000000" fill-rule="nonzero" fill-opacity="1" /><path clip-path="url(#clip190)" d="M1633.93 1945.53 L1642.49 1945.53 L1652.61 1969.4 L1662.77 1945.53 L1671.26 1945.53 L1671.26 1981.17 L1665.38 1981.17 L1665.38 1951.13 L1655.54 1974.33 L1649.68 1974.33 L1639.82 1951.13 L1639.82 1981.17 L1633.93 1981.17 L1633.93 1945.53 Z" fill="#000000" fill-rule="nonzero" fill-opacity="1" /><path clip-path="url(#clip190)" d="M1689.22 1955.81 Q1689.22 1958.45 1691.25 1959.94 Q1693.29 1961.44 1697.08 1961.44 L1704.97 1961.44 L1704.97 1950.2 L1697.08 1950.2 Q1693.29 1950.2 1691.25 1951.67 Q1689.22 1953.13 1689.22 1955.81 M1680.88 1981.17 L1691.76 1965.55 Q1688.07 1964.72 1685.62 1962.55 Q1683.17 1960.36 1683.17 1955.81 Q1683.17 1950.65 1686.57 1948.1 Q1690.01 1945.53 1696.92 1945.53 L1710.86 1945.53 L1710.86 1981.17 L1704.97 1981.17 L1704.97 1966.12 L1697.68 1966.12 L1687.18 1981.17 L1680.88 1981.17 Z" fill="#000000" fill-rule="nonzero" fill-opacity="1" /><path clip-path="url(#clip190)" d="M1724.04 1973.09 L1730.75 1973.09 L1730.75 1978.56 L1725.53 1988.75 L1721.43 1988.75 L1724.04 1978.56 L1724.04 1973.09 Z" fill="#000000" fill-rule="nonzero" fill-opacity="1" /><path clip-path="url(#clip190)" d="M1771.94 1976.5 L1788.93 1976.5 L1788.93 1950.2 L1776.62 1950.2 L1776.62 1954.66 Q1776.62 1967.77 1772.86 1974.78 L1771.94 1976.5 M1763.44 1976.5 Q1766.34 1975.22 1767.61 1972.52 Q1770.73 1965.8 1770.73 1952.27 L1770.73 1945.53 L1794.82 1945.53 L1794.82 1976.5 L1799.5 1976.5 L1799.5 1990.18 L1794.82 1990.18 L1794.82 1981.17 L1765.92 1981.17 L1765.92 1990.18 L1761.24 1990.18 L1761.24 1976.5 L1763.44 1976.5 Z" fill="#000000" fill-rule="nonzero" fill-opacity="1" /><path clip-path="url(#clip190)" d="M1808.83 1945.53 L1814.72 1945.53 L1814.72 1960.07 L1833.72 1960.07 L1833.72 1945.53 L1839.61 1945.53 L1839.61 1981.17 L1833.72 1981.17 L1833.72 1964.75 L1814.72 1964.75 L1814.72 1981.17 L1808.83 1981.17 L1808.83 1945.53 Z" fill="#000000" fill-rule="nonzero" fill-opacity="1" /><path clip-path="url(#clip190)" d="M1881.97 1945.53 L1881.97 1981.17 L1876.14 1981.17 L1876.14 1952.56 L1858.96 1981.17 L1851.45 1981.17 L1851.45 1945.53 L1857.27 1945.53 L1857.27 1974.08 L1874.43 1945.53 L1881.97 1945.53 Z" fill="#000000" fill-rule="nonzero" fill-opacity="1" /><polyline clip-path="url(#clip190)" style="stroke:#000000; stroke-linecap:round; stroke-linejoin:round; stroke-width:4; stroke-opacity:1; fill:none" points="237.419,1824.31 237.419,119.692 "/>
<polyline clip-path="url(#clip190)" style="stroke:#000000; stroke-linecap:round; stroke-linejoin:round; stroke-width:4; stroke-opacity:1; fill:none" points="237.419,1776.07 256.317,1776.07 "/>
<polyline clip-path="url(#clip190)" style="stroke:#000000; stroke-linecap:round; stroke-linejoin:round; stroke-width:4; stroke-opacity:1; fill:none" points="237.419,1369.97 256.317,1369.97 "/>
<polyline clip-path="url(#clip190)" style="stroke:#000000; stroke-linecap:round; stroke-linejoin:round; stroke-width:4; stroke-opacity:1; fill:none" points="237.419,963.879 256.317,963.879 "/>
<polyline clip-path="url(#clip190)" style="stroke:#000000; stroke-linecap:round; stroke-linejoin:round; stroke-width:4; stroke-opacity:1; fill:none" points="237.419,557.786 256.317,557.786 "/>
<polyline clip-path="url(#clip190)" style="stroke:#000000; stroke-linecap:round; stroke-linejoin:round; stroke-width:4; stroke-opacity:1; fill:none" points="237.419,151.692 256.317,151.692 "/>
<path clip-path="url(#clip190)" d="M177.475 1761.86 Q173.864 1761.86 172.035 1765.43 Q170.23 1768.97 170.23 1776.1 Q170.23 1783.21 172.035 1786.77 Q173.864 1790.31 177.475 1790.31 Q181.109 1790.31 182.915 1786.77 Q184.743 1783.21 184.743 1776.1 Q184.743 1768.97 182.915 1765.43 Q181.109 1761.86 177.475 1761.86 M177.475 1758.16 Q183.285 1758.16 186.341 1762.77 Q189.419 1767.35 189.419 1776.1 Q189.419 1784.83 186.341 1789.43 Q183.285 1794.02 177.475 1794.02 Q171.665 1794.02 168.586 1789.43 Q165.531 1784.83 165.531 1776.1 Q165.531 1767.35 168.586 1762.77 Q171.665 1758.16 177.475 1758.16 Z" fill="#000000" fill-rule="nonzero" fill-opacity="1" /><path clip-path="url(#clip190)" d="M142.336 1383.32 L158.656 1383.32 L158.656 1387.25 L136.711 1387.25 L136.711 1383.32 Q139.373 1380.56 143.957 1375.93 Q148.563 1371.28 149.744 1369.94 Q151.989 1367.41 152.869 1365.68 Q153.771 1363.92 153.771 1362.23 Q153.771 1359.47 151.827 1357.74 Q149.906 1356 146.804 1356 Q144.605 1356 142.151 1356.77 Q139.721 1357.53 136.943 1359.08 L136.943 1354.36 Q139.767 1353.22 142.221 1352.65 Q144.674 1352.07 146.711 1352.07 Q152.082 1352.07 155.276 1354.75 Q158.47 1357.44 158.47 1361.93 Q158.47 1364.06 157.66 1365.98 Q156.873 1367.88 154.767 1370.47 Q154.188 1371.14 151.086 1374.36 Q147.984 1377.55 142.336 1383.32 Z" fill="#000000" fill-rule="nonzero" fill-opacity="1" /><path clip-path="url(#clip190)" d="M168.517 1352.69 L186.873 1352.69 L186.873 1356.63 L172.799 1356.63 L172.799 1365.1 Q173.818 1364.75 174.836 1364.59 Q175.855 1364.41 176.873 1364.41 Q182.66 1364.41 186.04 1367.58 Q189.419 1370.75 189.419 1376.16 Q189.419 1381.74 185.947 1384.85 Q182.475 1387.92 176.156 1387.92 Q173.98 1387.92 171.711 1387.55 Q169.466 1387.18 167.058 1386.44 L167.058 1381.74 Q169.142 1382.88 171.364 1383.43 Q173.586 1383.99 176.063 1383.99 Q180.068 1383.99 182.405 1381.88 Q184.743 1379.78 184.743 1376.16 Q184.743 1372.55 182.405 1370.45 Q180.068 1368.34 176.063 1368.34 Q174.188 1368.34 172.313 1368.76 Q170.461 1369.17 168.517 1370.05 L168.517 1352.69 Z" fill="#000000" fill-rule="nonzero" fill-opacity="1" /><path clip-path="url(#clip190)" d="M137.359 946.599 L155.716 946.599 L155.716 950.534 L141.642 950.534 L141.642 959.006 Q142.66 958.659 143.679 958.497 Q144.697 958.312 145.716 958.312 Q151.503 958.312 154.882 961.483 Q158.262 964.655 158.262 970.071 Q158.262 975.65 154.79 978.752 Q151.318 981.83 144.998 981.83 Q142.822 981.83 140.554 981.46 Q138.309 981.09 135.901 980.349 L135.901 975.65 Q137.984 976.784 140.207 977.34 Q142.429 977.895 144.906 977.895 Q148.91 977.895 151.248 975.789 Q153.586 973.682 153.586 970.071 Q153.586 966.46 151.248 964.354 Q148.91 962.247 144.906 962.247 Q143.031 962.247 141.156 962.664 Q139.304 963.081 137.359 963.96 L137.359 946.599 Z" fill="#000000" fill-rule="nonzero" fill-opacity="1" /><path clip-path="url(#clip190)" d="M177.475 949.678 Q173.864 949.678 172.035 953.243 Q170.23 956.784 170.23 963.914 Q170.23 971.02 172.035 974.585 Q173.864 978.127 177.475 978.127 Q181.109 978.127 182.915 974.585 Q184.743 971.02 184.743 963.914 Q184.743 956.784 182.915 953.243 Q181.109 949.678 177.475 949.678 M177.475 945.974 Q183.285 945.974 186.341 950.581 Q189.419 955.164 189.419 963.914 Q189.419 972.641 186.341 977.247 Q183.285 981.83 177.475 981.83 Q171.665 981.83 168.586 977.247 Q165.531 972.641 165.531 963.914 Q165.531 955.164 168.586 950.581 Q171.665 945.974 177.475 945.974 Z" fill="#000000" fill-rule="nonzero" fill-opacity="1" /><path clip-path="url(#clip190)" d="M137.128 540.506 L159.35 540.506 L159.35 542.496 L146.804 575.066 L141.92 575.066 L153.725 544.441 L137.128 544.441 L137.128 540.506 Z" fill="#000000" fill-rule="nonzero" fill-opacity="1" /><path clip-path="url(#clip190)" d="M168.517 540.506 L186.873 540.506 L186.873 544.441 L172.799 544.441 L172.799 552.913 Q173.818 552.566 174.836 552.404 Q175.855 552.219 176.873 552.219 Q182.66 552.219 186.04 555.39 Q189.419 558.561 189.419 563.978 Q189.419 569.556 185.947 572.658 Q182.475 575.737 176.156 575.737 Q173.98 575.737 171.711 575.367 Q169.466 574.996 167.058 574.256 L167.058 569.556 Q169.142 570.691 171.364 571.246 Q173.586 571.802 176.063 571.802 Q180.068 571.802 182.405 569.695 Q184.743 567.589 184.743 563.978 Q184.743 560.367 182.405 558.26 Q180.068 556.154 176.063 556.154 Q174.188 556.154 172.313 556.57 Q170.461 556.987 168.517 557.867 L168.517 540.506 Z" fill="#000000" fill-rule="nonzero" fill-opacity="1" /><path clip-path="url(#clip190)" d="M107.961 165.037 L115.6 165.037 L115.6 138.672 L107.29 140.338 L107.29 136.079 L115.554 134.412 L120.23 134.412 L120.23 165.037 L127.869 165.037 L127.869 168.972 L107.961 168.972 L107.961 165.037 Z" fill="#000000" fill-rule="nonzero" fill-opacity="1" /><path clip-path="url(#clip190)" d="M147.313 137.491 Q143.702 137.491 141.873 141.056 Q140.068 144.597 140.068 151.727 Q140.068 158.833 141.873 162.398 Q143.702 165.94 147.313 165.94 Q150.947 165.94 152.753 162.398 Q154.582 158.833 154.582 151.727 Q154.582 144.597 152.753 141.056 Q150.947 137.491 147.313 137.491 M147.313 133.787 Q153.123 133.787 156.179 138.394 Q159.257 142.977 159.257 151.727 Q159.257 160.454 156.179 165.06 Q153.123 169.644 147.313 169.644 Q141.503 169.644 138.424 165.06 Q135.369 160.454 135.369 151.727 Q135.369 142.977 138.424 138.394 Q141.503 133.787 147.313 133.787 Z" fill="#000000" fill-rule="nonzero" fill-opacity="1" /><path clip-path="url(#clip190)" d="M177.475 137.491 Q173.864 137.491 172.035 141.056 Q170.23 144.597 170.23 151.727 Q170.23 158.833 172.035 162.398 Q173.864 165.94 177.475 165.94 Q181.109 165.94 182.915 162.398 Q184.743 158.833 184.743 151.727 Q184.743 144.597 182.915 141.056 Q181.109 137.491 177.475 137.491 M177.475 133.787 Q183.285 133.787 186.341 138.394 Q189.419 142.977 189.419 151.727 Q189.419 160.454 186.341 165.06 Q183.285 169.644 177.475 169.644 Q171.665 169.644 168.586 165.06 Q165.531 160.454 165.531 151.727 Q165.531 142.977 168.586 138.394 Q171.665 133.787 177.475 133.787 Z" fill="#000000" fill-rule="nonzero" fill-opacity="1" /><path clip-path="url(#clip190)" d="M39.6233 1291.67 L39.6233 1270.66 L2.92501 1270.66 L2.92501 1286.1 L9.67266 1286.1 Q25.5551 1286.1 36.0903 1289.67 Q38.2547 1290.4 39.6233 1291.67 M39.6233 1301.06 Q37.6181 1296.8 33.7987 1295.59 Q23.9955 1292.5 6.4898 1292.5 L-2.48584 1292.5 L-2.48584 1264.23 L39.6233 1264.23 L39.6233 1258.82 L55.2511 1258.82 L55.2511 1264.23 L45.0342 1264.23 L45.0342 1297.91 L55.2511 1297.91 L55.2511 1303.32 L39.6233 1303.32 L39.6233 1301.06 Z" fill="#000000" fill-rule="nonzero" fill-opacity="1" /><path clip-path="url(#clip190)" d="M13.4921 1235.65 Q13.4921 1240.36 17.1842 1243.1 Q20.8445 1245.84 27.242 1245.84 Q33.6395 1245.84 37.3317 1243.13 Q40.9919 1240.4 40.9919 1235.65 Q40.9919 1230.97 37.2998 1228.24 Q33.6077 1225.5 27.242 1225.5 Q20.9081 1225.5 17.216 1228.24 Q13.4921 1230.97 13.4921 1235.65 M8.52683 1235.65 Q8.52683 1228.01 13.4921 1223.65 Q18.4573 1219.29 27.242 1219.29 Q35.9949 1219.29 40.9919 1223.65 Q45.9572 1228.01 45.9572 1235.65 Q45.9572 1243.32 40.9919 1247.68 Q35.9949 1252.01 27.242 1252.01 Q18.4573 1252.01 13.4921 1247.68 Q8.52683 1243.32 8.52683 1235.65 Z" fill="#000000" fill-rule="nonzero" fill-opacity="1" /><path clip-path="url(#clip190)" d="M45.0342 1213.31 L40.1644 1213.31 Q39.2732 1207.52 35.2628 1205.73 Q29.6291 1203.57 15.2108 1203.57 L9.3862 1203.57 L9.3862 1179.48 L45.0342 1179.48 L45.0342 1185.33 L14.065 1185.33 L14.065 1197.71 L17.598 1197.71 Q31.3479 1197.71 37.5226 1200.51 Q44.1111 1203.51 45.0342 1213.31 Z" fill="#000000" fill-rule="nonzero" fill-opacity="1" /><path clip-path="url(#clip190)" d="M19.6668 1162.03 Q22.3086 1162.03 23.8045 1160 Q25.3005 1157.96 25.3005 1154.17 L25.3005 1146.28 L14.065 1146.28 L14.065 1154.17 Q14.065 1157.96 15.5291 1160 Q16.9932 1162.03 19.6668 1162.03 M45.0342 1170.37 L29.4063 1159.49 Q28.5788 1163.18 26.4145 1165.63 Q24.2183 1168.08 19.6668 1168.08 Q14.5106 1168.08 11.9643 1164.68 Q9.3862 1161.24 9.3862 1154.33 L9.3862 1140.39 L45.0342 1140.39 L45.0342 1146.28 L29.9793 1146.28 L29.9793 1153.57 L45.0342 1164.07 L45.0342 1170.37 Z" fill="#000000" fill-rule="nonzero" fill-opacity="1" /><path clip-path="url(#clip190)" d="M9.3862 1077.43 L45.0342 1077.43 L45.0342 1083.32 L14.065 1083.32 L14.065 1102.32 L45.0342 1102.32 L45.0342 1108.21 L9.3862 1108.21 L9.3862 1077.43 Z" fill="#000000" fill-rule="nonzero" fill-opacity="1" /><path clip-path="url(#clip190)" d="M13.4921 1051.56 Q13.4921 1056.27 17.1842 1059 Q20.8445 1061.74 27.242 1061.74 Q33.6395 1061.74 37.3317 1059.04 Q40.9919 1056.3 40.9919 1051.56 Q40.9919 1046.88 37.2998 1044.14 Q33.6077 1041.4 27.242 1041.4 Q20.9081 1041.4 17.216 1044.14 Q13.4921 1046.88 13.4921 1051.56 M8.52683 1051.56 Q8.52683 1043.92 13.4921 1039.56 Q18.4573 1035.2 27.242 1035.2 Q35.9949 1035.2 40.9919 1039.56 Q45.9572 1043.92 45.9572 1051.56 Q45.9572 1059.23 40.9919 1063.59 Q35.9949 1067.92 27.242 1067.92 Q18.4573 1067.92 13.4921 1063.59 Q8.52683 1059.23 8.52683 1051.56 Z" fill="#000000" fill-rule="nonzero" fill-opacity="1" /><path clip-path="url(#clip190)" d="M9.3862 994.933 L45.0342 994.933 L45.0342 1000.82 L14.065 1000.82 L14.065 1019.82 L45.0342 1019.82 L45.0342 1025.71 L9.3862 1025.71 L9.3862 994.933 Z" fill="#000000" fill-rule="nonzero" fill-opacity="1" /><path clip-path="url(#clip190)" d="M48.3443 968.038 Q54.71 970.521 56.6516 972.876 Q58.5931 975.232 58.5931 979.178 L58.5931 983.857 L53.6915 983.857 L53.6915 980.42 Q53.6915 978.001 52.5457 976.664 Q51.3999 975.327 47.1348 973.704 L44.4612 972.653 L9.3862 987.072 L9.3862 980.865 L37.268 969.725 L9.3862 958.585 L9.3862 952.379 L48.3443 968.038 Z" fill="#000000" fill-rule="nonzero" fill-opacity="1" /><path clip-path="url(#clip190)" d="M45.0342 948.018 L40.1644 948.018 Q39.2732 942.225 35.2628 940.443 Q29.6291 938.279 15.2108 938.279 L9.3862 938.279 L9.3862 914.184 L45.0342 914.184 L45.0342 920.041 L14.065 920.041 L14.065 932.422 L17.598 932.422 Q31.3479 932.422 37.5226 935.223 Q44.1111 938.215 45.0342 948.018 Z" fill="#000000" fill-rule="nonzero" fill-opacity="1" /><path clip-path="url(#clip190)" d="M19.6668 896.742 Q22.3086 896.742 23.8045 894.705 Q25.3005 892.668 25.3005 888.881 L25.3005 880.987 L14.065 880.987 L14.065 888.881 Q14.065 892.668 15.5291 894.705 Q16.9932 896.742 19.6668 896.742 M45.0342 905.081 L29.4063 894.196 Q28.5788 897.888 26.4145 900.339 Q24.2183 902.79 19.6668 902.79 Q14.5106 902.79 11.9643 899.384 Q9.3862 895.947 9.3862 889.04 L9.3862 875.099 L45.0342 875.099 L45.0342 880.987 L29.9793 880.987 L29.9793 888.276 L45.0342 898.779 L45.0342 905.081 Z" fill="#000000" fill-rule="nonzero" fill-opacity="1" /><path clip-path="url(#clip190)" d="M45.0342 832.863 L45.0342 863.641 L9.3862 863.641 L9.3862 857.752 L40.3554 857.752 L40.3554 838.751 L9.3862 838.751 L9.3862 832.863 L40.3554 832.863 L40.3554 828.184 L54.0416 828.184 L54.0416 832.863 L45.0342 832.863 Z" fill="#000000" fill-rule="nonzero" fill-opacity="1" /><path clip-path="url(#clip190)" d="M9.3862 788.748 L45.0342 788.748 L45.0342 794.573 L16.4203 794.573 L45.0342 811.76 L45.0342 819.272 L9.3862 819.272 L9.3862 813.447 L37.9364 813.447 L9.3862 796.292 L9.3862 788.748 Z" fill="#000000" fill-rule="nonzero" fill-opacity="1" /><path clip-path="url(#clip190)" d="M9.3862 746.384 L45.0342 746.384 L45.0342 752.209 L16.4203 752.209 L45.0342 769.396 L45.0342 776.908 L9.3862 776.908 L9.3862 771.083 L37.9364 771.083 L9.3862 753.928 L9.3862 746.384 Z" fill="#000000" fill-rule="nonzero" fill-opacity="1" /><path clip-path="url(#clip190)" d="M36.9497 732.825 L36.9497 726.11 L42.4242 726.11 L52.6093 731.33 L52.6093 735.435 L42.4242 732.825 L36.9497 732.825 Z" fill="#000000" fill-rule="nonzero" fill-opacity="1" /><path clip-path="url(#clip190)" d="M24.1228 651.631 Q24.1228 654.4 26.4781 655.991 Q28.8334 657.551 33.0348 657.551 Q37.1725 657.551 39.5596 655.991 Q41.915 654.4 41.915 651.631 Q41.915 648.925 39.5596 647.366 Q37.1725 645.774 33.0348 645.774 Q28.8653 645.774 26.51 647.366 Q24.1228 648.925 24.1228 651.631 M20.0806 651.631 Q20.0806 646.602 23.5817 643.642 Q27.0829 640.682 33.0348 640.682 Q38.9867 640.682 42.4879 643.674 Q45.9572 646.634 45.9572 651.631 Q45.9572 656.723 42.4879 659.684 Q38.9867 662.644 33.0348 662.644 Q27.051 662.644 23.5817 659.684 Q20.0806 656.692 20.0806 651.631 M0.697011 684.478 Q0.697011 687.215 3.08415 688.807 Q5.43946 690.366 9.57717 690.366 Q13.7785 690.366 16.1338 688.807 Q18.4892 687.247 18.4892 684.478 Q18.4892 681.709 16.1338 680.149 Q13.7785 678.558 9.57717 678.558 Q5.47129 678.558 3.08415 680.149 Q0.697011 681.741 0.697011 684.478 M-3.34521 655.737 L-3.34521 650.644 L45.9572 680.372 L45.9572 685.465 L-3.34521 655.737 M-3.34521 684.478 Q-3.34521 679.449 0.155926 676.457 Q3.62524 673.465 9.57717 673.465 Q15.5928 673.465 19.0621 676.457 Q22.5314 679.417 22.5314 684.478 Q22.5314 689.539 19.0621 692.499 Q15.5609 695.427 9.57717 695.427 Q3.65706 695.427 0.155926 692.467 Q-3.34521 689.507 -3.34521 684.478 Z" fill="#000000" fill-rule="nonzero" fill-opacity="1" /><path clip-path="url(#clip190)" d="M948.425 65.6895 L975.161 65.6895 L975.161 18.9825 L955.514 18.9825 L955.514 27.5705 Q955.514 47.7845 950.977 61.193 Q950.045 63.9476 948.425 65.6895 M936.475 65.6895 Q941.903 63.1374 943.442 58.2763 Q947.372 45.7995 947.372 23.5195 L947.372 12.096 L983.344 12.096 L983.344 65.6895 L990.23 65.6895 L990.23 85.5794 L983.344 85.5794 L983.344 72.576 L940.485 72.576 L940.485 85.5794 L933.599 85.5794 L933.599 65.6895 L936.475 65.6895 Z" fill="#000000" fill-rule="nonzero" fill-opacity="1" /><path clip-path="url(#clip190)" d="M1040.7 27.2059 L1040.7 72.576 L1033.29 72.576 L1033.29 36.1584 L1011.42 72.576 L1001.86 72.576 L1001.86 27.2059 L1009.27 27.2059 L1009.27 63.5425 L1031.1 27.2059 L1040.7 27.2059 Z" fill="#000000" fill-rule="nonzero" fill-opacity="1" /><path clip-path="url(#clip190)" d="M1055.77 27.2059 L1063.27 27.2059 L1063.27 45.7185 L1087.45 45.7185 L1087.45 27.2059 L1094.95 27.2059 L1094.95 72.576 L1087.45 72.576 L1087.45 51.6733 L1063.27 51.6733 L1063.27 72.576 L1055.77 72.576 L1055.77 27.2059 Z" fill="#000000" fill-rule="nonzero" fill-opacity="1" /><path clip-path="url(#clip190)" d="M1130.92 49.7694 Q1121.88 49.7694 1118.4 51.8354 Q1114.92 53.9013 1114.92 58.8839 Q1114.92 62.8538 1117.51 65.2034 Q1120.14 67.5124 1124.64 67.5124 Q1130.84 67.5124 1134.56 63.1374 Q1138.33 58.7219 1138.33 51.4303 L1138.33 49.7694 L1130.92 49.7694 M1145.79 46.6907 L1145.79 72.576 L1138.33 72.576 L1138.33 65.6895 Q1135.78 69.8214 1131.97 71.8063 Q1128.16 73.7508 1122.65 73.7508 Q1115.69 73.7508 1111.55 69.8619 Q1107.46 65.9325 1107.46 59.3701 Q1107.46 51.7138 1112.57 47.825 Q1117.71 43.9361 1127.88 43.9361 L1138.33 43.9361 L1138.33 43.2069 Q1138.33 38.0623 1134.93 35.2672 Q1131.57 32.4315 1125.45 32.4315 Q1121.56 32.4315 1117.87 33.3632 Q1114.19 34.295 1110.79 36.1584 L1110.79 29.2718 Q1114.88 27.692 1118.72 26.9223 Q1122.57 26.1121 1126.22 26.1121 Q1136.06 26.1121 1140.92 31.2163 Q1145.79 36.3204 1145.79 46.6907 Z" fill="#000000" fill-rule="nonzero" fill-opacity="1" /><path clip-path="url(#clip190)" d="M1160.85 27.2059 L1171.75 27.2059 L1184.63 57.5877 L1197.56 27.2059 L1208.37 27.2059 L1208.37 72.576 L1200.88 72.576 L1200.88 34.3355 L1188.36 63.8666 L1180.91 63.8666 L1168.35 34.3355 L1168.35 72.576 L1160.85 72.576 L1160.85 27.2059 Z" fill="#000000" fill-rule="nonzero" fill-opacity="1" /><path clip-path="url(#clip190)" d="M1262.29 27.2059 L1262.29 72.576 L1254.88 72.576 L1254.88 36.1584 L1233 72.576 L1223.44 72.576 L1223.44 27.2059 L1230.85 27.2059 L1230.85 63.5425 L1252.69 27.2059 L1262.29 27.2059 Z" fill="#000000" fill-rule="nonzero" fill-opacity="1" /><path clip-path="url(#clip190)" d="M1277.36 27.2059 L1284.77 27.2059 L1284.77 48.5136 L1305.8 27.2059 L1314.95 27.2059 L1297.61 44.7463 L1317.18 72.576 L1308.83 72.576 L1292.75 49.6884 L1284.77 57.7902 L1284.77 72.576 L1277.36 72.576 L1277.36 27.2059 Z" fill="#000000" fill-rule="nonzero" fill-opacity="1" /><path clip-path="url(#clip190)" d="M1348.37 49.7694 Q1339.34 49.7694 1335.85 51.8354 Q1332.37 53.9013 1332.37 58.8839 Q1332.37 62.8538 1334.96 65.2034 Q1337.6 67.5124 1342.09 67.5124 Q1348.29 67.5124 1352.02 63.1374 Q1355.78 58.7219 1355.78 51.4303 L1355.78 49.7694 L1348.37 49.7694 M1363.24 46.6907 L1363.24 72.576 L1355.78 72.576 L1355.78 65.6895 Q1353.23 69.8214 1349.42 71.8063 Q1345.62 73.7508 1340.11 73.7508 Q1333.14 73.7508 1329.01 69.8619 Q1324.92 65.9325 1324.92 59.3701 Q1324.92 51.7138 1330.02 47.825 Q1335.16 43.9361 1345.33 43.9361 L1355.78 43.9361 L1355.78 43.2069 Q1355.78 38.0623 1352.38 35.2672 Q1349.02 32.4315 1342.9 32.4315 Q1339.01 32.4315 1335.33 33.3632 Q1331.64 34.295 1328.24 36.1584 L1328.24 29.2718 Q1332.33 27.692 1336.18 26.9223 Q1340.03 26.1121 1343.67 26.1121 Q1353.52 26.1121 1358.38 31.2163 Q1363.24 36.3204 1363.24 46.6907 Z" fill="#000000" fill-rule="nonzero" fill-opacity="1" /><path clip-path="url(#clip190)" d="M1401.72 63.9476 Q1408.12 67.4314 1414.48 67.4314 Q1420.44 67.4314 1424.69 63.9881 Q1428.94 60.5043 1429.71 51.6733 L1406.7 51.6733 L1406.7 45.7185 L1429.47 45.7185 Q1428.98 41.4651 1425.74 36.9686 Q1422.54 32.4315 1414.48 32.4315 Q1408.24 32.4315 1401.72 35.9153 L1401.72 28.9478 Q1408.08 26.1121 1414.81 26.1121 Q1425.42 26.1121 1431.5 32.5531 Q1437.61 38.9535 1437.61 49.9314 Q1437.61 60.8689 1431.66 67.3098 Q1425.74 73.7508 1415.33 73.7508 Q1407.68 73.7508 1401.72 70.8341 L1401.72 63.9476 Z" fill="#000000" fill-rule="nonzero" fill-opacity="1" /><path clip-path="url(#clip190)" d="M1489.38 27.2059 L1489.38 72.576 L1481.89 72.576 L1481.89 33.1607 L1457.7 33.1607 L1457.7 72.576 L1450.21 72.576 L1450.21 27.2059 L1489.38 27.2059 Z" fill="#000000" fill-rule="nonzero" fill-opacity="1" /><path clip-path="url(#clip190)" d="M1543.3 27.2059 L1543.3 72.576 L1535.89 72.576 L1535.89 36.1584 L1514.01 72.576 L1504.45 72.576 L1504.45 27.2059 L1511.87 27.2059 L1511.87 63.5425 L1533.7 27.2059 L1543.3 27.2059 Z" fill="#000000" fill-rule="nonzero" fill-opacity="1" /><path clip-path="url(#clip190)" d="M1568.78 66.6212 L1590.41 66.6212 L1590.41 33.1607 L1574.74 33.1607 L1574.74 38.832 Q1574.74 55.5217 1569.96 64.4337 L1568.78 66.6212 M1557.96 66.6212 Q1561.65 65.0008 1563.27 61.5575 Q1567.24 53.0101 1567.24 35.7938 L1567.24 27.2059 L1597.91 27.2059 L1597.91 66.6212 L1603.86 66.6212 L1603.86 84.0401 L1597.91 84.0401 L1597.91 72.576 L1561.12 72.576 L1561.12 84.0401 L1555.17 84.0401 L1555.17 66.6212 L1557.96 66.6212 Z" fill="#000000" fill-rule="nonzero" fill-opacity="1" /><path clip-path="url(#clip190)" d="M1654.82 48.0275 L1654.82 51.6733 L1620.55 51.6733 Q1621.04 59.3701 1625.17 63.421 Q1629.34 67.4314 1636.75 67.4314 Q1641.05 67.4314 1645.06 66.3781 Q1649.11 65.3249 1653.08 63.2184 L1653.08 70.267 Q1649.07 71.9684 1644.86 72.8596 Q1640.64 73.7508 1636.31 73.7508 Q1625.45 73.7508 1619.09 67.4314 Q1612.77 61.1119 1612.77 50.3365 Q1612.77 39.1965 1618.77 32.6746 Q1624.8 26.1121 1635.01 26.1121 Q1644.17 26.1121 1649.47 32.0264 Q1654.82 37.9003 1654.82 48.0275 M1647.37 45.84 Q1647.29 39.7232 1643.92 36.0774 Q1640.6 32.4315 1635.09 32.4315 Q1628.86 32.4315 1625.09 35.9558 Q1621.36 39.4801 1620.79 45.8805 L1647.37 45.84 Z" fill="#000000" fill-rule="nonzero" fill-opacity="1" /><path clip-path="url(#clip190)" d="M1666.77 27.2059 L1677.67 27.2059 L1690.55 57.5877 L1703.47 27.2059 L1714.29 27.2059 L1714.29 72.576 L1706.79 72.576 L1706.79 34.3355 L1694.28 63.8666 L1686.82 63.8666 L1674.27 34.3355 L1674.27 72.576 L1666.77 72.576 L1666.77 27.2059 Z" fill="#000000" fill-rule="nonzero" fill-opacity="1" /><path clip-path="url(#clip190)" d="M1768.21 27.2059 L1768.21 72.576 L1760.79 72.576 L1760.79 36.1584 L1738.92 72.576 L1729.36 72.576 L1729.36 27.2059 L1736.77 27.2059 L1736.77 63.5425 L1758.61 27.2059 L1768.21 27.2059 Z" fill="#000000" fill-rule="nonzero" fill-opacity="1" /><path clip-path="url(#clip190)" d="M1822.12 27.2059 L1822.12 72.576 L1814.71 72.576 L1814.71 36.1584 L1792.84 72.576 L1783.28 72.576 L1783.28 27.2059 L1790.69 27.2059 L1790.69 63.5425 L1812.52 27.2059 L1822.12 27.2059 Z" fill="#000000" fill-rule="nonzero" fill-opacity="1" /><path clip-path="url(#clip190)" d="M1881.75 9.62495 Q1876.33 18.942 1873.69 28.0566 Q1871.06 37.1711 1871.06 46.5287 Q1871.06 55.8863 1873.69 65.0818 Q1876.37 74.2369 1881.75 83.5134 L1875.27 83.5134 Q1869.2 73.9938 1866.16 64.7983 Q1863.16 55.6027 1863.16 46.5287 Q1863.16 37.4952 1866.16 28.3401 Q1869.15 19.1851 1875.27 9.62495 L1881.75 9.62495 Z" fill="#000000" fill-rule="nonzero" fill-opacity="1" /><path clip-path="url(#clip190)" d="M1903.39 51.6733 L1903.39 66.6212 L1914 66.6212 Q1919.1 66.6212 1921.78 64.7172 Q1924.45 62.7728 1924.45 59.127 Q1924.45 55.4812 1921.78 53.5773 Q1919.1 51.6733 1914 51.6733 L1903.39 51.6733 M1903.39 33.1607 L1903.39 45.7185 L1913.19 45.7185 Q1917.4 45.7185 1920.07 44.0576 Q1922.75 42.3563 1922.75 39.3586 Q1922.75 36.3609 1920.07 34.7811 Q1917.4 33.1607 1913.19 33.1607 L1903.39 33.1607 M1895.93 27.2059 L1913.67 27.2059 Q1921.65 27.2059 1925.95 30.1225 Q1930.24 33.0392 1930.24 38.4269 Q1930.24 42.5993 1928.06 45.0704 Q1925.87 47.5009 1921.57 48.1085 Q1926.72 49.0808 1929.55 52.1594 Q1932.39 55.2381 1932.39 59.8562 Q1932.39 65.9325 1927.69 69.2543 Q1923.03 72.576 1914.36 72.576 L1895.93 72.576 L1895.93 27.2059 Z" fill="#000000" fill-rule="nonzero" fill-opacity="1" /><path clip-path="url(#clip190)" d="M2010.37 27.2059 L2010.37 72.576 L2002.88 72.576 L2002.88 33.1607 L1978.69 33.1607 L1978.69 72.576 L1971.2 72.576 L1971.2 27.2059 L2010.37 27.2059 Z" fill="#000000" fill-rule="nonzero" fill-opacity="1" /><path clip-path="url(#clip190)" d="M2032.93 65.7705 L2032.93 89.8329 L2025.44 89.8329 L2025.44 27.2059 L2032.93 27.2059 L2032.93 34.0924 Q2035.28 30.0415 2038.85 28.0971 Q2042.45 26.1121 2047.44 26.1121 Q2055.7 26.1121 2060.84 32.6746 Q2066.03 39.2371 2066.03 49.9314 Q2066.03 60.6258 2060.84 67.1883 Q2055.7 73.7508 2047.44 73.7508 Q2042.45 73.7508 2038.85 71.8063 Q2035.28 69.8214 2032.93 65.7705 M2058.29 49.9314 Q2058.29 41.7081 2054.89 37.0496 Q2051.53 32.3505 2045.61 32.3505 Q2039.7 32.3505 2036.3 37.0496 Q2032.93 41.7081 2032.93 49.9314 Q2032.93 58.1548 2036.3 62.8538 Q2039.7 67.5124 2045.61 67.5124 Q2051.53 67.5124 2054.89 62.8538 Q2058.29 58.1548 2058.29 49.9314 Z" fill="#000000" fill-rule="nonzero" fill-opacity="1" /><path clip-path="url(#clip190)" d="M2095.97 32.4315 Q2089.97 32.4315 2086.49 37.1306 Q2083 41.7891 2083 49.9314 Q2083 58.0738 2086.45 62.7728 Q2089.93 67.4314 2095.97 67.4314 Q2101.92 67.4314 2105.4 62.7323 Q2108.89 58.0333 2108.89 49.9314 Q2108.89 41.8701 2105.4 37.1711 Q2101.92 32.4315 2095.97 32.4315 M2095.97 26.1121 Q2105.69 26.1121 2111.24 32.4315 Q2116.79 38.7509 2116.79 49.9314 Q2116.79 61.0714 2111.24 67.4314 Q2105.69 73.7508 2095.97 73.7508 Q2086.2 73.7508 2080.65 67.4314 Q2075.14 61.0714 2075.14 49.9314 Q2075.14 38.7509 2080.65 32.4315 Q2086.2 26.1121 2095.97 26.1121 Z" fill="#000000" fill-rule="nonzero" fill-opacity="1" /><path clip-path="url(#clip190)" d="M2168.03 72.576 L2128.86 72.576 L2128.86 27.2059 L2136.35 27.2059 L2136.35 66.6212 L2160.54 66.6212 L2160.54 27.2059 L2168.03 27.2059 L2168.03 66.6212 L2173.99 66.6212 L2173.99 84.0401 L2168.03 84.0401 L2168.03 72.576 Z" fill="#000000" fill-rule="nonzero" fill-opacity="1" /><path clip-path="url(#clip190)" d="M2224.42 48.0275 L2224.42 51.6733 L2190.15 51.6733 Q2190.63 59.3701 2194.77 63.421 Q2198.94 67.4314 2206.35 67.4314 Q2210.65 67.4314 2214.66 66.3781 Q2218.71 65.3249 2222.68 63.2184 L2222.68 70.267 Q2218.67 71.9684 2214.45 72.8596 Q2210.24 73.7508 2205.91 73.7508 Q2195.05 73.7508 2188.69 67.4314 Q2182.37 61.1119 2182.37 50.3365 Q2182.37 39.1965 2188.37 32.6746 Q2194.4 26.1121 2204.61 26.1121 Q2213.77 26.1121 2219.07 32.0264 Q2224.42 37.9003 2224.42 48.0275 M2216.97 45.84 Q2216.88 39.7232 2213.52 36.0774 Q2210.2 32.4315 2204.69 32.4315 Q2198.45 32.4315 2194.69 35.9558 Q2190.96 39.4801 2190.39 45.8805 L2216.97 45.84 Z" fill="#000000" fill-rule="nonzero" fill-opacity="1" /><path clip-path="url(#clip190)" d="M2236.37 27.2059 L2243.86 27.2059 L2243.86 45.7185 L2268.05 45.7185 L2268.05 27.2059 L2275.54 27.2059 L2275.54 72.576 L2268.05 72.576 L2268.05 51.6733 L2243.86 51.6733 L2243.86 72.576 L2236.37 72.576 L2236.37 27.2059 Z" fill="#000000" fill-rule="nonzero" fill-opacity="1" /><path clip-path="url(#clip190)" d="M2285.51 27.2059 L2328.97 27.2059 L2328.97 33.1607 L2310.91 33.1607 L2310.91 72.576 L2303.57 72.576 L2303.57 33.1607 L2285.51 33.1607 L2285.51 27.2059 Z" fill="#000000" fill-rule="nonzero" fill-opacity="1" /><path clip-path="url(#clip190)" d="M2359.84 49.7694 Q2350.81 49.7694 2347.32 51.8354 Q2343.84 53.9013 2343.84 58.8839 Q2343.84 62.8538 2346.43 65.2034 Q2349.07 67.5124 2353.56 67.5124 Q2359.76 67.5124 2363.49 63.1374 Q2367.25 58.7219 2367.25 51.4303 L2367.25 49.7694 L2359.84 49.7694 M2374.71 46.6907 L2374.71 72.576 L2367.25 72.576 L2367.25 65.6895 Q2364.7 69.8214 2360.89 71.8063 Q2357.09 73.7508 2351.58 73.7508 Q2344.61 73.7508 2340.48 69.8619 Q2336.39 65.9325 2336.39 59.3701 Q2336.39 51.7138 2341.49 47.825 Q2346.64 43.9361 2356.8 43.9361 L2367.25 43.9361 L2367.25 43.2069 Q2367.25 38.0623 2363.85 35.2672 Q2360.49 32.4315 2354.37 32.4315 Q2350.48 32.4315 2346.8 33.3632 Q2343.11 34.295 2339.71 36.1584 L2339.71 29.2718 Q2343.8 27.692 2347.65 26.9223 Q2351.5 26.1121 2355.14 26.1121 Q2364.99 26.1121 2369.85 31.2163 Q2374.71 36.3204 2374.71 46.6907 Z" fill="#000000" fill-rule="nonzero" fill-opacity="1" /><path clip-path="url(#clip190)" d="M2427.77 27.2059 L2411.37 49.2833 L2428.63 72.576 L2419.83 72.576 L2406.63 54.752 L2393.42 72.576 L2384.63 72.576 L2402.25 48.8377 L2386.13 27.2059 L2394.92 27.2059 L2406.95 43.369 L2418.98 27.2059 L2427.77 27.2059 Z" fill="#000000" fill-rule="nonzero" fill-opacity="1" /><path clip-path="url(#clip190)" d="M2437.98 9.62495 L2444.46 9.62495 Q2450.54 19.1851 2453.54 28.3401 Q2456.58 37.4952 2456.58 46.5287 Q2456.58 55.6027 2453.54 64.7983 Q2450.54 73.9938 2444.46 83.5134 L2437.98 83.5134 Q2443.37 74.2369 2446 65.0818 Q2448.68 55.8863 2448.68 46.5287 Q2448.68 37.1711 2446 28.0566 Q2443.37 18.942 2437.98 9.62495 Z" fill="#000000" fill-rule="nonzero" fill-opacity="1" /><polyline clip-path="url(#clip191)" style="stroke:#009af9; stroke-linecap:round; stroke-linejoin:round; stroke-width:8; stroke-opacity:1; fill:none" points="319.929,167.936 326.805,168.75 356.585,172.508 415.633,181.205 499.402,196.949 607.418,224.804 744.861,276.654 915.713,374.767 1123.81,550.797 1370.51,809.399 1632.03,1058.07 1930.48,1245.07 2274.68,1356.15 2609.48,1406.39 3070.25,1435.21 "/>
<polyline clip-path="url(#clip191)" style="stroke:#e26f46; stroke-linecap:round; stroke-linejoin:round; stroke-width:8; stroke-opacity:1; fill:none" points="319.929,1759.82 326.805,1759.42 356.585,1757.56 415.633,1753.28 499.402,1745.6 607.418,1732.2 744.861,1707.96 915.713,1664.81 1123.81,1597.8 1370.51,1531.74 1632.03,1524.6 1930.48,1582.65 2274.68,1662.18 2609.48,1715.43 3070.25,1752.56 "/>
<polyline clip-path="url(#clip191)" style="stroke:#3da44d; stroke-linecap:round; stroke-linejoin:round; stroke-width:8; stroke-opacity:1; fill:none" points="319.929,1776.07 326.805,1775.65 356.585,1773.75 415.633,1769.34 499.402,1761.28 607.418,1746.82 744.861,1719.21 915.713,1664.25 1123.81,1555.22 1370.51,1362.69 1632.03,1121.15 1930.48,876.104 2274.68,685.492 2609.48,582.008 3070.25,516.063 "/>
<polyline clip-path="url(#clip191)" style="stroke:#800080; stroke-linecap:round; stroke-linejoin:round; stroke-width:6; stroke-opacity:1; fill:none" stroke-dasharray="24, 15" points="-2677.92,963.879 6068.09,963.879 "/>
<path clip-path="url(#clip190)" d="M1709.35 1132.5 L3055.58 1132.5 L3055.58 873.302 L1709.35 873.302  Z" fill="#ffffff" fill-rule="evenodd" fill-opacity="1"/>
<polyline clip-path="url(#clip190)" style="stroke:#000000; stroke-linecap:round; stroke-linejoin:round; stroke-width:4; stroke-opacity:1; fill:none" points="1709.35,1132.5 3055.58,1132.5 3055.58,873.302 1709.35,873.302 1709.35,1132.5 "/>
<polyline clip-path="url(#clip190)" style="stroke:#009af9; stroke-linecap:round; stroke-linejoin:round; stroke-width:8; stroke-opacity:1; fill:none" points="1741.74,925.142 1936.1,925.142 "/>
<path clip-path="url(#clip190)" d="M1996.95 903.686 L1994.35 914.18 Q1994.21 914.812 1994.09 914.976 Q1993.98 915.14 1993.65 915.14 Q1993.39 915.14 1993.23 915.023 Q1993.09 914.906 1993.09 914.789 L1993.06 914.672 Q1993.06 914.601 1993.11 914.25 Q1993.16 913.875 1993.2 913.266 Q1993.25 912.657 1993.25 911.978 Q1993.25 908.137 1991.38 906.357 Q1989.53 904.553 1986.34 904.553 Q1984.14 904.553 1982.17 905.724 Q1980.2 906.895 1979.08 908.746 Q1977.95 910.573 1977.95 912.493 Q1977.95 914.25 1978.84 915.374 Q1979.73 916.499 1980.88 916.873 L1984.09 917.74 Q1987.46 918.607 1988.42 918.981 Q1989.38 919.333 1990.18 920.129 Q1992.55 922.331 1992.55 925.75 Q1992.55 928.702 1990.88 931.559 Q1989.22 934.393 1986.36 936.244 Q1983.51 938.071 1980.34 938.071 Q1974.79 938.071 1972.24 934.627 L1969.9 937.344 Q1969.45 937.86 1969.31 937.953 Q1969.19 938.071 1969.03 938.071 Q1968.82 938.071 1968.66 937.93 Q1968.49 937.813 1968.49 937.602 Q1968.49 937.438 1969.87 931.934 Q1971.26 926.43 1971.37 926.313 Q1971.56 926.125 1971.86 926.125 Q1972.43 926.125 1972.43 926.664 Q1972.38 926.804 1972.33 926.992 Q1972.05 928.678 1972.05 929.592 Q1972.05 931.301 1972.64 932.613 Q1973.22 933.901 1974.09 934.651 Q1974.98 935.377 1976.17 935.845 Q1977.37 936.29 1978.38 936.454 Q1979.38 936.595 1980.44 936.595 Q1982.71 936.595 1984.72 935.283 Q1986.76 933.972 1987.91 931.934 Q1989.08 929.896 1989.08 927.765 Q1989.08 926.64 1988.78 925.774 Q1988.47 924.884 1988.05 924.392 Q1987.65 923.9 1986.97 923.525 Q1986.29 923.15 1985.82 923.01 Q1985.38 922.846 1984.68 922.682 L1979.55 921.324 Q1977.49 920.715 1976.01 918.958 Q1974.56 917.201 1974.56 914.508 Q1974.56 911.673 1976.22 909.05 Q1977.91 906.403 1980.65 904.811 Q1983.41 903.195 1986.39 903.195 Q1988.73 903.195 1990.53 904.108 Q1992.34 904.998 1993.25 906.661 L1995.57 903.921 Q1996.04 903.382 1996.13 903.288 Q1996.25 903.195 1996.41 903.195 Q1996.69 903.195 1996.81 903.359 Q1996.95 903.522 1996.95 903.686 Z" fill="#000000" fill-rule="nonzero" fill-opacity="1" /><path clip-path="url(#clip190)" d="M2002.4 925.024 Q2002.4 916.92 2005.42 910.385 Q2006.71 907.645 2008.51 905.349 Q2010.32 903.054 2011.51 902.047 Q2012.71 901.04 2013.03 901.04 Q2013.5 901.04 2013.53 901.508 Q2013.53 901.742 2012.89 902.328 Q2005.16 910.198 2005.19 925.024 Q2005.19 939.898 2012.71 947.463 Q2013.53 948.283 2013.53 948.54 Q2013.53 949.009 2013.03 949.009 Q2012.71 949.009 2011.56 948.049 Q2010.41 947.088 2008.63 944.887 Q2006.85 942.685 2005.56 939.991 Q2002.4 933.456 2002.4 925.024 Z" fill="#000000" fill-rule="nonzero" fill-opacity="1" /><path clip-path="url(#clip190)" d="M2031.9 916.873 Q2031.9 917.529 2031.6 917.693 Q2031.29 917.834 2030.45 917.834 L2025.95 917.834 L2022.39 931.981 Q2022.11 933.222 2022.11 934.276 Q2022.11 935.447 2022.46 935.963 Q2022.84 936.478 2023.61 936.478 Q2025.13 936.478 2026.77 935.096 Q2028.43 933.714 2029.84 930.341 Q2030.03 929.896 2030.12 929.802 Q2030.24 929.685 2030.54 929.685 Q2031.13 929.685 2031.13 930.154 Q2031.13 930.318 2030.8 931.067 Q2030.49 931.817 2029.82 932.918 Q2029.16 934.019 2028.29 935.049 Q2027.45 936.08 2026.16 936.829 Q2024.87 937.555 2023.49 937.555 Q2021.55 937.555 2020.31 936.314 Q2019.09 935.073 2019.09 933.128 Q2019.09 932.496 2019.58 930.482 Q2020.07 928.444 2022.74 917.834 L2018.5 917.834 Q2017.92 917.834 2017.68 917.81 Q2017.47 917.787 2017.31 917.67 Q2017.17 917.529 2017.17 917.248 Q2017.17 916.803 2017.35 916.616 Q2017.54 916.405 2017.78 916.381 Q2018.03 916.335 2018.62 916.335 L2023.12 916.335 L2024.99 908.722 Q2025.18 907.973 2025.65 907.551 Q2026.14 907.106 2026.42 907.059 Q2026.7 906.989 2026.91 906.989 Q2027.54 906.989 2027.92 907.34 Q2028.29 907.668 2028.29 908.277 Q2028.29 908.605 2026.33 916.335 L2030.54 916.335 Q2031.08 916.335 2031.29 916.358 Q2031.53 916.381 2031.71 916.499 Q2031.9 916.616 2031.9 916.873 Z" fill="#000000" fill-rule="nonzero" fill-opacity="1" /><path clip-path="url(#clip190)" d="M2035.65 948.54 Q2035.65 948.306 2036.26 947.721 Q2043.99 939.851 2043.99 925.024 Q2043.99 910.151 2036.56 902.632 Q2035.65 901.766 2035.65 901.508 Q2035.65 901.04 2036.12 901.04 Q2036.45 901.04 2037.6 902 Q2038.77 902.96 2040.52 905.162 Q2042.3 907.364 2043.61 910.057 Q2046.78 916.592 2046.78 925.024 Q2046.78 933.128 2043.76 939.663 Q2042.47 942.404 2040.66 944.699 Q2038.86 946.995 2037.67 948.002 Q2036.47 949.009 2036.12 949.009 Q2035.65 949.009 2035.65 948.54 Z" fill="#000000" fill-rule="nonzero" fill-opacity="1" /><path clip-path="url(#clip190)" d="M2054.07 948.33 Q2054.07 948.095 2054.25 947.58 L2071.19 902.328 Q2071.19 902.281 2071.31 902.023 Q2071.42 901.766 2071.49 901.602 Q2071.56 901.414 2071.7 901.274 Q2071.87 901.133 2072.06 901.133 Q2072.52 901.133 2072.52 901.719 Q2072.52 901.766 2072.38 902.328 L2055.4 947.627 Q2055.12 948.447 2054.93 948.681 Q2054.77 948.915 2054.49 948.915 Q2054.07 948.915 2054.07 948.33 Z" fill="#000000" fill-rule="nonzero" fill-opacity="1" /><path clip-path="url(#clip190)" d="M2118.2 904.787 Q2118.2 905.748 2117.38 905.748 Q2114.73 905.841 2113.65 906.731 Q2112.6 907.598 2112.2 909.284 L2105.5 936.009 Q2105.27 936.853 2105.13 936.946 Q2104.99 937.017 2104.73 937.017 Q2104.4 937.017 2104.21 936.853 Q2104.05 936.689 2103.82 936.103 L2091.87 907.856 Q2091.78 907.668 2091.66 907.411 Q2091.54 907.153 2091.45 906.989 L2085.1 932.309 Q2084.91 933.035 2084.91 933.41 Q2084.91 934.323 2085.55 934.909 Q2086.2 935.471 2088.08 935.541 Q2089.04 935.541 2089.04 936.056 Q2089.04 937.017 2088.17 937.017 Q2087.37 937.017 2085.71 936.946 Q2084.05 936.876 2083.23 936.876 Q2082.43 936.876 2080.81 936.946 Q2079.2 937.017 2078.43 937.017 Q2077.82 937.017 2077.82 936.478 Q2077.82 936.056 2077.98 935.845 Q2078.14 935.611 2078.29 935.588 Q2078.43 935.541 2078.64 935.541 Q2080.04 935.494 2081 935.213 Q2081.96 934.932 2082.5 934.393 Q2083.06 933.855 2083.32 933.316 Q2083.6 932.754 2083.81 931.934 L2090.23 906.169 Q2090.23 905.748 2086.97 905.748 Q2086.41 905.748 2086.18 905.724 Q2085.97 905.701 2085.8 905.584 Q2085.64 905.467 2085.64 905.209 Q2085.64 904.553 2085.92 904.413 Q2086.2 904.249 2087.02 904.249 L2093.46 904.249 Q2094.28 904.249 2094.49 904.389 Q2094.7 904.506 2094.99 905.162 L2105.6 930.201 L2110.96 908.863 Q2111.1 908.441 2111.1 907.856 Q2111.1 906.919 2110.4 906.357 Q2109.72 905.771 2107.84 905.748 Q2106.98 905.748 2106.98 905.209 Q2106.98 904.764 2107.14 904.553 Q2107.33 904.319 2107.47 904.295 Q2107.63 904.249 2107.84 904.249 Q2108.64 904.249 2110.28 904.319 Q2111.92 904.389 2112.74 904.389 Q2113.54 904.389 2115.15 904.319 Q2116.79 904.249 2117.59 904.249 Q2117.87 904.249 2118.01 904.389 Q2118.17 904.506 2118.2 904.647 L2118.2 904.787 Z" fill="#000000" fill-rule="nonzero" fill-opacity="1" /><polyline clip-path="url(#clip190)" style="stroke:#e26f46; stroke-linecap:round; stroke-linejoin:round; stroke-width:8; stroke-opacity:1; fill:none" points="1741.74,976.982 1936.1,976.982 "/>
<path clip-path="url(#clip190)" d="M1990.7 956.674 Q1990.7 957.119 1990.51 957.33 Q1990.35 957.517 1990.09 957.564 Q1989.83 957.588 1989.15 957.588 Q1988 957.588 1987.28 957.681 Q1986.55 957.752 1986.11 957.869 Q1985.66 957.962 1985.4 958.29 Q1985.17 958.595 1985.05 958.876 Q1984.96 959.157 1984.79 959.789 L1978.38 985.343 Q1978.17 986.093 1978.17 986.467 Q1978.17 986.866 1978.4 987.03 Q1978.63 987.194 1979.38 987.264 Q1980.58 987.381 1981.44 987.381 Q1982.59 987.381 1982.76 987.545 Q1982.87 987.709 1982.87 987.943 Q1982.87 988.365 1982.69 988.599 Q1982.5 988.81 1982.33 988.833 Q1982.19 988.857 1981.91 988.857 L1975.5 988.716 L1969.19 988.857 Q1968.49 988.857 1968.49 988.318 Q1968.49 987.967 1968.54 987.779 Q1968.61 987.568 1968.84 987.498 Q1969.1 987.404 1969.29 987.404 Q1969.48 987.381 1970.01 987.381 Q1970.97 987.381 1971.61 987.358 Q1972.26 987.311 1972.73 987.194 Q1973.22 987.053 1973.46 986.936 Q1973.72 986.795 1973.9 986.491 Q1974.11 986.163 1974.18 985.905 Q1974.28 985.648 1974.39 985.109 L1980.86 959.251 Q1980.95 958.829 1980.95 958.501 Q1980.95 957.869 1980.2 957.728 Q1979.48 957.588 1977.65 957.588 Q1977.09 957.588 1976.85 957.564 Q1976.64 957.541 1976.46 957.424 Q1976.29 957.307 1976.29 957.049 Q1976.29 956.721 1976.39 956.51 Q1976.48 956.276 1976.64 956.206 Q1976.83 956.135 1976.95 956.112 Q1977.06 956.089 1977.25 956.089 L1983.65 956.229 L1989.97 956.089 Q1990.7 956.089 1990.7 956.674 Z" fill="#000000" fill-rule="nonzero" fill-opacity="1" /><path clip-path="url(#clip190)" d="M1996.11 976.864 Q1996.11 968.76 1999.13 962.225 Q2000.42 959.485 2002.22 957.189 Q2004.03 954.894 2005.22 953.887 Q2006.42 952.88 2006.74 952.88 Q2007.21 952.88 2007.23 953.348 Q2007.23 953.582 2006.6 954.168 Q1998.87 962.038 1998.9 976.864 Q1998.9 991.738 2006.42 999.303 Q2007.23 1000.12 2007.23 1000.38 Q2007.23 1000.85 2006.74 1000.85 Q2006.42 1000.85 2005.27 999.889 Q2004.12 998.928 2002.34 996.727 Q2000.56 994.525 1999.27 991.831 Q1996.11 985.296 1996.11 976.864 Z" fill="#000000" fill-rule="nonzero" fill-opacity="1" /><path clip-path="url(#clip190)" d="M2025.61 968.713 Q2025.61 969.369 2025.3 969.533 Q2025 969.674 2024.16 969.674 L2019.66 969.674 L2016.1 983.821 Q2015.82 985.062 2015.82 986.116 Q2015.82 987.287 2016.17 987.803 Q2016.54 988.318 2017.32 988.318 Q2018.84 988.318 2020.48 986.936 Q2022.14 985.554 2023.55 982.181 Q2023.74 981.736 2023.83 981.642 Q2023.95 981.525 2024.25 981.525 Q2024.84 981.525 2024.84 981.994 Q2024.84 982.158 2024.51 982.907 Q2024.2 983.657 2023.52 984.758 Q2022.87 985.859 2022 986.889 Q2021.16 987.92 2019.87 988.669 Q2018.58 989.395 2017.2 989.395 Q2015.26 989.395 2014.02 988.154 Q2012.8 986.913 2012.8 984.968 Q2012.8 984.336 2013.29 982.322 Q2013.78 980.284 2016.45 969.674 L2012.21 969.674 Q2011.63 969.674 2011.39 969.65 Q2011.18 969.627 2011.02 969.51 Q2010.88 969.369 2010.88 969.088 Q2010.88 968.643 2011.06 968.456 Q2011.25 968.245 2011.49 968.221 Q2011.74 968.175 2012.33 968.175 L2016.83 968.175 L2018.7 960.562 Q2018.89 959.813 2019.36 959.391 Q2019.85 958.946 2020.13 958.899 Q2020.41 958.829 2020.62 958.829 Q2021.25 958.829 2021.63 959.18 Q2022 959.508 2022 960.117 Q2022 960.445 2020.03 968.175 L2024.25 968.175 Q2024.79 968.175 2025 968.198 Q2025.23 968.221 2025.42 968.339 Q2025.61 968.456 2025.61 968.713 Z" fill="#000000" fill-rule="nonzero" fill-opacity="1" /><path clip-path="url(#clip190)" d="M2029.36 1000.38 Q2029.36 1000.15 2029.97 999.561 Q2037.7 991.691 2037.7 976.864 Q2037.7 961.991 2030.27 954.472 Q2029.36 953.606 2029.36 953.348 Q2029.36 952.88 2029.83 952.88 Q2030.16 952.88 2031.3 953.84 Q2032.48 954.8 2034.23 957.002 Q2036.01 959.204 2037.32 961.897 Q2040.49 968.432 2040.49 976.864 Q2040.49 984.968 2037.46 991.503 Q2036.18 994.244 2034.37 996.539 Q2032.57 998.835 2031.37 999.842 Q2030.18 1000.85 2029.83 1000.85 Q2029.36 1000.85 2029.36 1000.38 Z" fill="#000000" fill-rule="nonzero" fill-opacity="1" /><path clip-path="url(#clip190)" d="M2047.78 1000.17 Q2047.78 999.935 2047.96 999.42 L2064.9 954.168 Q2064.9 954.121 2065.02 953.863 Q2065.13 953.606 2065.2 953.442 Q2065.27 953.254 2065.41 953.114 Q2065.58 952.973 2065.76 952.973 Q2066.23 952.973 2066.23 953.559 Q2066.23 953.606 2066.09 954.168 L2049.11 999.467 Q2048.83 1000.29 2048.64 1000.52 Q2048.48 1000.76 2048.2 1000.76 Q2047.78 1000.76 2047.78 1000.17 Z" fill="#000000" fill-rule="nonzero" fill-opacity="1" /><path clip-path="url(#clip190)" d="M2111.91 956.627 Q2111.91 957.588 2111.09 957.588 Q2108.44 957.681 2107.36 958.571 Q2106.31 959.438 2105.91 961.124 L2099.21 987.849 Q2098.98 988.693 2098.84 988.786 Q2098.7 988.857 2098.44 988.857 Q2098.11 988.857 2097.92 988.693 Q2097.76 988.529 2097.53 987.943 L2085.58 959.696 Q2085.49 959.508 2085.37 959.251 Q2085.25 958.993 2085.16 958.829 L2078.81 984.149 Q2078.62 984.875 2078.62 985.25 Q2078.62 986.163 2079.26 986.749 Q2079.91 987.311 2081.79 987.381 Q2082.75 987.381 2082.75 987.896 Q2082.75 988.857 2081.88 988.857 Q2081.08 988.857 2079.42 988.786 Q2077.76 988.716 2076.94 988.716 Q2076.14 988.716 2074.52 988.786 Q2072.91 988.857 2072.14 988.857 Q2071.53 988.857 2071.53 988.318 Q2071.53 987.896 2071.69 987.685 Q2071.85 987.451 2071.99 987.428 Q2072.14 987.381 2072.35 987.381 Q2073.75 987.334 2074.71 987.053 Q2075.67 986.772 2076.21 986.233 Q2076.77 985.695 2077.03 985.156 Q2077.31 984.594 2077.52 983.774 L2083.94 958.009 Q2083.94 957.588 2080.68 957.588 Q2080.12 957.588 2079.89 957.564 Q2079.68 957.541 2079.51 957.424 Q2079.35 957.307 2079.35 957.049 Q2079.35 956.393 2079.63 956.253 Q2079.91 956.089 2080.73 956.089 L2087.17 956.089 Q2087.99 956.089 2088.2 956.229 Q2088.41 956.346 2088.69 957.002 L2099.31 982.041 L2104.67 960.703 Q2104.81 960.281 2104.81 959.696 Q2104.81 958.759 2104.11 958.197 Q2103.43 957.611 2101.55 957.588 Q2100.69 957.588 2100.69 957.049 Q2100.69 956.604 2100.85 956.393 Q2101.04 956.159 2101.18 956.135 Q2101.34 956.089 2101.55 956.089 Q2102.35 956.089 2103.99 956.159 Q2105.63 956.229 2106.45 956.229 Q2107.25 956.229 2108.86 956.159 Q2110.5 956.089 2111.3 956.089 Q2111.58 956.089 2111.72 956.229 Q2111.88 956.346 2111.91 956.487 L2111.91 956.627 Z" fill="#000000" fill-rule="nonzero" fill-opacity="1" /><polyline clip-path="url(#clip190)" style="stroke:#3da44d; stroke-linecap:round; stroke-linejoin:round; stroke-width:8; stroke-opacity:1; fill:none" points="1741.74,1028.82 1936.1,1028.82 "/>
<path clip-path="url(#clip190)" d="M1997.51 1014.16 Q1997.51 1013.39 1997.3 1012.75 Q1997.11 1012.1 1996.81 1011.65 Q1996.53 1011.18 1995.99 1010.83 Q1995.45 1010.46 1995.01 1010.22 Q1994.56 1009.99 1993.81 1009.85 Q1993.06 1009.69 1992.57 1009.61 Q1992.08 1009.52 1991.24 1009.47 Q1990.39 1009.43 1989.97 1009.43 Q1989.57 1009.43 1988.78 1009.43 Q1986.27 1009.43 1985.85 1009.47 Q1985.22 1009.57 1984.98 1009.94 Q1984.75 1010.29 1984.51 1011.25 L1981.4 1023.76 L1986.76 1023.76 Q1989.69 1023.76 1991.7 1022.94 Q1993.72 1022.12 1994.87 1020.97 Q1996.13 1019.71 1996.81 1017.67 Q1997.51 1015.63 1997.51 1014.16 M2002.74 1036.25 Q2002.74 1036.5 2002.52 1037.09 Q2002.34 1037.68 2001.87 1038.49 Q2001.4 1039.29 2000.77 1040.02 Q2000.14 1040.74 1999.13 1041.24 Q1998.12 1041.75 1996.97 1041.75 Q1996.69 1041.75 1996.41 1041.73 Q1996.13 1041.73 1995.43 1041.61 Q1994.75 1041.52 1994.19 1041.33 Q1993.62 1041.17 1992.92 1040.77 Q1992.22 1040.39 1991.73 1039.88 Q1991.26 1039.34 1990.93 1038.49 Q1990.6 1037.63 1990.6 1036.57 Q1990.6 1035.64 1991.38 1032.5 Q1992.05 1029.83 1992.05 1029.17 Q1992.05 1028.45 1991.82 1027.77 Q1991.61 1027.09 1991.07 1026.39 Q1990.56 1025.68 1989.46 1025.26 Q1988.35 1024.82 1986.81 1024.82 L1981.12 1024.82 L1977.93 1037.53 Q1977.93 1037.56 1977.86 1037.89 Q1977.79 1038.19 1977.79 1038.35 Q1977.79 1038.66 1977.98 1038.85 Q1978.19 1039.03 1978.7 1039.13 Q1979.22 1039.2 1979.62 1039.22 Q1980.04 1039.22 1980.91 1039.22 Q1981.98 1039.22 1982.17 1039.41 Q1982.26 1039.53 1982.26 1039.74 Q1982.26 1040.06 1982.17 1040.3 Q1982.1 1040.51 1981.91 1040.58 Q1981.75 1040.65 1981.63 1040.67 Q1981.51 1040.7 1981.3 1040.7 L1975.21 1040.56 L1969.17 1040.7 Q1968.49 1040.7 1968.49 1040.16 Q1968.49 1039.69 1968.66 1039.5 Q1968.82 1039.29 1969.03 1039.27 Q1969.24 1039.22 1969.78 1039.22 Q1970.95 1039.22 1971.65 1039.15 Q1972.36 1039.08 1972.8 1038.99 Q1973.27 1038.87 1973.5 1038.54 Q1973.76 1038.21 1973.88 1037.93 Q1974 1037.63 1974.16 1036.95 L1980.58 1011.18 Q1980.77 1010.41 1980.77 1010.29 Q1980.77 1009.85 1980.48 1009.73 Q1980.23 1009.59 1979.48 1009.52 L1977.65 1009.43 Q1977.09 1009.43 1976.85 1009.4 Q1976.64 1009.38 1976.48 1009.26 Q1976.32 1009.15 1976.32 1008.89 Q1976.32 1008.23 1976.6 1008.09 Q1976.88 1007.93 1977.7 1007.93 L1991.38 1007.93 Q1996.04 1007.93 1998.99 1009.97 Q2001.96 1012 2001.96 1015.12 Q2001.96 1016.52 2001.33 1017.84 Q2000.7 1019.15 1999.64 1020.18 Q1998.61 1021.21 1997.23 1022.08 Q1995.85 1022.92 1994.37 1023.5 Q1992.92 1024.07 1991.42 1024.39 Q1992.08 1024.63 1992.69 1024.98 Q1993.32 1025.33 1994.12 1025.99 Q1994.94 1026.64 1995.43 1027.7 Q1995.92 1028.75 1995.92 1030.04 Q1995.92 1030.95 1995.73 1032.31 Q1995.26 1036.18 1995.26 1037.77 Q1995.26 1039.29 1995.66 1039.99 Q1996.06 1040.7 1997.18 1040.7 Q1998.29 1040.7 1999.5 1039.71 Q2000.74 1038.71 2001.54 1036.34 Q2001.73 1035.66 2002.17 1035.66 Q2002.2 1035.66 2002.22 1035.66 Q2002.27 1035.66 2002.36 1035.71 Q2002.45 1035.73 2002.52 1035.8 Q2002.62 1035.85 2002.67 1035.97 Q2002.74 1036.08 2002.74 1036.25 Z" fill="#000000" fill-rule="nonzero" fill-opacity="1" /><path clip-path="url(#clip190)" d="M2007.99 1028.7 Q2007.99 1020.6 2011.01 1014.07 Q2012.3 1011.32 2014.1 1009.03 Q2015.91 1006.73 2017.1 1005.73 Q2018.3 1004.72 2018.62 1004.72 Q2019.09 1004.72 2019.12 1005.19 Q2019.12 1005.42 2018.48 1006.01 Q2010.75 1013.88 2010.78 1028.7 Q2010.78 1043.58 2018.3 1051.14 Q2019.12 1051.96 2019.12 1052.22 Q2019.12 1052.69 2018.62 1052.69 Q2018.3 1052.69 2017.15 1051.73 Q2016 1050.77 2014.22 1048.57 Q2012.44 1046.36 2011.15 1043.67 Q2007.99 1037.14 2007.99 1028.7 Z" fill="#000000" fill-rule="nonzero" fill-opacity="1" /><path clip-path="url(#clip190)" d="M2037.49 1020.55 Q2037.49 1021.21 2037.19 1021.37 Q2036.88 1021.51 2036.04 1021.51 L2031.54 1021.51 L2027.98 1035.66 Q2027.7 1036.9 2027.7 1037.96 Q2027.7 1039.13 2028.05 1039.64 Q2028.43 1040.16 2029.2 1040.16 Q2030.72 1040.16 2032.36 1038.78 Q2034.02 1037.39 2035.43 1034.02 Q2035.62 1033.58 2035.71 1033.48 Q2035.83 1033.37 2036.13 1033.37 Q2036.72 1033.37 2036.72 1033.83 Q2036.72 1034 2036.39 1034.75 Q2036.09 1035.5 2035.41 1036.6 Q2034.75 1037.7 2033.88 1038.73 Q2033.04 1039.76 2031.75 1040.51 Q2030.46 1041.24 2029.08 1041.24 Q2027.14 1041.24 2025.9 1039.99 Q2024.68 1038.75 2024.68 1036.81 Q2024.68 1036.18 2025.17 1034.16 Q2025.66 1032.12 2028.33 1021.51 L2024.09 1021.51 Q2023.51 1021.51 2023.27 1021.49 Q2023.06 1021.47 2022.9 1021.35 Q2022.76 1021.21 2022.76 1020.93 Q2022.76 1020.48 2022.95 1020.3 Q2023.13 1020.08 2023.37 1020.06 Q2023.62 1020.01 2024.21 1020.01 L2028.71 1020.01 L2030.58 1012.4 Q2030.77 1011.65 2031.24 1011.23 Q2031.73 1010.79 2032.01 1010.74 Q2032.29 1010.67 2032.5 1010.67 Q2033.13 1010.67 2033.51 1011.02 Q2033.88 1011.35 2033.88 1011.96 Q2033.88 1012.29 2031.92 1020.01 L2036.13 1020.01 Q2036.67 1020.01 2036.88 1020.04 Q2037.12 1020.06 2037.3 1020.18 Q2037.49 1020.3 2037.49 1020.55 Z" fill="#000000" fill-rule="nonzero" fill-opacity="1" /><path clip-path="url(#clip190)" d="M2041.24 1052.22 Q2041.24 1051.99 2041.85 1051.4 Q2049.58 1043.53 2049.58 1028.7 Q2049.58 1013.83 2042.16 1006.31 Q2041.24 1005.45 2041.24 1005.19 Q2041.24 1004.72 2041.71 1004.72 Q2042.04 1004.72 2043.19 1005.68 Q2044.36 1006.64 2046.11 1008.84 Q2047.89 1011.04 2049.21 1013.74 Q2052.37 1020.27 2052.37 1028.7 Q2052.37 1036.81 2049.35 1043.34 Q2048.06 1046.08 2046.25 1048.38 Q2044.45 1050.67 2043.26 1051.68 Q2042.06 1052.69 2041.71 1052.69 Q2041.24 1052.69 2041.24 1052.22 Z" fill="#000000" fill-rule="nonzero" fill-opacity="1" /><path clip-path="url(#clip190)" d="M2059.66 1052.01 Q2059.66 1051.78 2059.84 1051.26 L2076.78 1006.01 Q2076.78 1005.96 2076.9 1005.7 Q2077.01 1005.45 2077.08 1005.28 Q2077.15 1005.09 2077.29 1004.95 Q2077.46 1004.81 2077.65 1004.81 Q2078.11 1004.81 2078.11 1005.4 Q2078.11 1005.45 2077.97 1006.01 L2060.99 1051.31 Q2060.71 1052.13 2060.52 1052.36 Q2060.36 1052.6 2060.08 1052.6 Q2059.66 1052.6 2059.66 1052.01 Z" fill="#000000" fill-rule="nonzero" fill-opacity="1" /><path clip-path="url(#clip190)" d="M2123.79 1008.47 Q2123.79 1009.43 2122.97 1009.43 Q2120.32 1009.52 2119.24 1010.41 Q2118.19 1011.28 2117.79 1012.96 L2111.09 1039.69 Q2110.86 1040.53 2110.72 1040.63 Q2110.58 1040.7 2110.32 1040.7 Q2109.99 1040.7 2109.8 1040.53 Q2109.64 1040.37 2109.41 1039.78 L2097.46 1011.54 Q2097.37 1011.35 2097.25 1011.09 Q2097.13 1010.83 2097.04 1010.67 L2090.69 1035.99 Q2090.5 1036.71 2090.5 1037.09 Q2090.5 1038 2091.14 1038.59 Q2091.79 1039.15 2093.67 1039.22 Q2094.63 1039.22 2094.63 1039.74 Q2094.63 1040.7 2093.76 1040.7 Q2092.96 1040.7 2091.3 1040.63 Q2089.64 1040.56 2088.82 1040.56 Q2088.02 1040.56 2086.41 1040.63 Q2084.79 1040.7 2084.02 1040.7 Q2083.41 1040.7 2083.41 1040.16 Q2083.41 1039.74 2083.57 1039.53 Q2083.74 1039.29 2083.88 1039.27 Q2084.02 1039.22 2084.23 1039.22 Q2085.63 1039.17 2086.59 1038.89 Q2087.55 1038.61 2088.09 1038.07 Q2088.65 1037.53 2088.91 1037 Q2089.19 1036.43 2089.4 1035.61 L2095.82 1009.85 Q2095.82 1009.43 2092.57 1009.43 Q2092 1009.43 2091.77 1009.4 Q2091.56 1009.38 2091.39 1009.26 Q2091.23 1009.15 2091.23 1008.89 Q2091.23 1008.23 2091.51 1008.09 Q2091.79 1007.93 2092.61 1007.93 L2099.05 1007.93 Q2099.87 1007.93 2100.08 1008.07 Q2100.29 1008.19 2100.58 1008.84 L2111.19 1033.88 L2116.55 1012.54 Q2116.69 1012.12 2116.69 1011.54 Q2116.69 1010.6 2115.99 1010.04 Q2115.31 1009.45 2113.43 1009.43 Q2112.57 1009.43 2112.57 1008.89 Q2112.57 1008.44 2112.73 1008.23 Q2112.92 1008 2113.06 1007.98 Q2113.22 1007.93 2113.43 1007.93 Q2114.23 1007.93 2115.87 1008 Q2117.51 1008.07 2118.33 1008.07 Q2119.13 1008.07 2120.74 1008 Q2122.38 1007.93 2123.18 1007.93 Q2123.46 1007.93 2123.6 1008.07 Q2123.76 1008.19 2123.79 1008.33 L2123.79 1008.47 Z" fill="#000000" fill-rule="nonzero" fill-opacity="1" /><polyline clip-path="url(#clip190)" style="stroke:#800080; stroke-linecap:round; stroke-linejoin:round; stroke-width:6; stroke-opacity:1; fill:none" stroke-dasharray="24, 15" points="1741.74,1080.66 1936.1,1080.66 "/>
<path clip-path="url(#clip190)" d="M1994.83 1063.38 L1994.83 1097.94 L1990.16 1097.94 L1990.16 1067.32 L1973.17 1067.32 L1973.17 1097.94 L1968.49 1097.94 L1968.49 1063.38 L1994.83 1063.38 Z" fill="#000000" fill-rule="nonzero" fill-opacity="1" /><path clip-path="url(#clip190)" d="M2014 1075 Q2010.58 1075 2008.58 1077.69 Q2006.59 1080.35 2006.59 1085 Q2006.59 1089.65 2008.56 1092.34 Q2010.55 1095 2014 1095 Q2017.4 1095 2019.39 1092.32 Q2021.39 1089.63 2021.39 1085 Q2021.39 1080.4 2019.39 1077.71 Q2017.4 1075 2014 1075 M2014 1071.39 Q2019.56 1071.39 2022.73 1075 Q2025.9 1078.61 2025.9 1085 Q2025.9 1091.37 2022.73 1095 Q2019.56 1098.61 2014 1098.61 Q2008.42 1098.61 2005.25 1095 Q2002.1 1091.37 2002.1 1085 Q2002.1 1078.61 2005.25 1075 Q2008.42 1071.39 2014 1071.39 Z" fill="#000000" fill-rule="nonzero" fill-opacity="1" /><path clip-path="url(#clip190)" d="M2037.08 1094.05 L2037.08 1107.8 L2032.8 1107.8 L2032.8 1072.02 L2037.08 1072.02 L2037.08 1075.95 Q2038.42 1073.64 2040.46 1072.53 Q2042.52 1071.39 2045.37 1071.39 Q2050.09 1071.39 2053.03 1075.14 Q2055.99 1078.89 2055.99 1085 Q2055.99 1091.11 2053.03 1094.86 Q2050.09 1098.61 2045.37 1098.61 Q2042.52 1098.61 2040.46 1097.5 Q2038.42 1096.37 2037.08 1094.05 M2051.57 1085 Q2051.57 1080.3 2049.63 1077.64 Q2047.7 1074.96 2044.32 1074.96 Q2040.95 1074.96 2039 1077.64 Q2037.08 1080.3 2037.08 1085 Q2037.08 1089.7 2039 1092.39 Q2040.95 1095.05 2044.32 1095.05 Q2047.7 1095.05 2049.63 1092.39 Q2051.57 1089.7 2051.57 1085 Z" fill="#000000" fill-rule="nonzero" fill-opacity="1" /><path clip-path="url(#clip190)" d="M2073.1 1075 Q2069.67 1075 2067.68 1077.69 Q2065.69 1080.35 2065.69 1085 Q2065.69 1089.65 2067.66 1092.34 Q2069.65 1095 2073.1 1095 Q2076.5 1095 2078.49 1092.32 Q2080.48 1089.63 2080.48 1085 Q2080.48 1080.4 2078.49 1077.71 Q2076.5 1075 2073.1 1075 M2073.1 1071.39 Q2078.65 1071.39 2081.82 1075 Q2085 1078.61 2085 1085 Q2085 1091.37 2081.82 1095 Q2078.65 1098.61 2073.1 1098.61 Q2067.52 1098.61 2064.35 1095 Q2061.2 1091.37 2061.2 1085 Q2061.2 1078.61 2064.35 1075 Q2067.52 1071.39 2073.1 1071.39 Z" fill="#000000" fill-rule="nonzero" fill-opacity="1" /><path clip-path="url(#clip190)" d="M2091.89 1097.94 L2091.89 1072.02 L2110.18 1072.02 L2110.18 1075.42 L2096.18 1075.42 L2096.18 1097.94 L2091.89 1097.94 Z" fill="#000000" fill-rule="nonzero" fill-opacity="1" /><path clip-path="url(#clip190)" d="M2131.87 1072.02 L2136.11 1072.02 L2136.11 1084.19 L2148.12 1072.02 L2153.35 1072.02 L2143.44 1082.04 L2154.63 1097.94 L2149.86 1097.94 L2140.67 1084.86 L2136.11 1089.49 L2136.11 1097.94 L2131.87 1097.94 L2131.87 1072.02 Z" fill="#000000" fill-rule="nonzero" fill-opacity="1" /><path clip-path="url(#clip190)" d="M2170.71 1075 Q2167.29 1075 2165.3 1077.69 Q2163.31 1080.35 2163.31 1085 Q2163.31 1089.65 2165.27 1092.34 Q2167.26 1095 2170.71 1095 Q2174.12 1095 2176.11 1092.32 Q2178.1 1089.63 2178.1 1085 Q2178.1 1080.4 2176.11 1077.71 Q2174.12 1075 2170.71 1075 M2170.71 1071.39 Q2176.27 1071.39 2179.44 1075 Q2182.61 1078.61 2182.61 1085 Q2182.61 1091.37 2179.44 1095 Q2176.27 1098.61 2170.71 1098.61 Q2165.13 1098.61 2161.96 1095 Q2158.82 1091.37 2158.82 1085 Q2158.82 1078.61 2161.96 1075 Q2165.13 1071.39 2170.71 1071.39 Z" fill="#000000" fill-rule="nonzero" fill-opacity="1" /><path clip-path="url(#clip190)" d="M2186.96 1097.94 L2186.96 1094.4 Q2191.18 1093.75 2192.47 1090.84 Q2194.05 1086.74 2194.05 1076.25 L2194.05 1072.02 L2211.57 1072.02 L2211.57 1097.94 L2207.31 1097.94 L2207.31 1075.42 L2198.31 1075.42 L2198.31 1077.99 Q2198.31 1087.99 2196.27 1092.48 Q2194.09 1097.27 2186.96 1097.94 Z" fill="#000000" fill-rule="nonzero" fill-opacity="1" /><path clip-path="url(#clip190)" d="M2217.26 1097.94 L2217.26 1094.4 Q2221.48 1093.75 2222.77 1090.84 Q2224.35 1086.74 2224.35 1076.25 L2224.35 1072.02 L2241.87 1072.02 L2241.87 1097.94 L2237.61 1097.94 L2237.61 1075.42 L2228.61 1075.42 L2228.61 1077.99 Q2228.61 1087.99 2226.57 1092.48 Q2224.39 1097.27 2217.26 1097.94 Z" fill="#000000" fill-rule="nonzero" fill-opacity="1" /><path clip-path="url(#clip190)" d="M2272.45 1083.91 L2272.45 1086 L2252.87 1086 Q2253.14 1090.4 2255.5 1092.71 Q2257.89 1095 2262.12 1095 Q2264.58 1095 2266.87 1094.4 Q2269.18 1093.8 2271.45 1092.59 L2271.45 1096.62 Q2269.16 1097.59 2266.75 1098.1 Q2264.35 1098.61 2261.87 1098.61 Q2255.67 1098.61 2252.03 1095 Q2248.42 1091.39 2248.42 1085.23 Q2248.42 1078.87 2251.85 1075.14 Q2255.3 1071.39 2261.13 1071.39 Q2266.36 1071.39 2269.39 1074.77 Q2272.45 1078.13 2272.45 1083.91 M2268.19 1082.66 Q2268.14 1079.17 2266.22 1077.09 Q2264.32 1075 2261.18 1075 Q2257.61 1075 2255.46 1077.02 Q2253.33 1079.03 2253 1082.69 L2268.19 1082.66 Z" fill="#000000" fill-rule="nonzero" fill-opacity="1" /><path clip-path="url(#clip190)" d="M2279.28 1072.02 L2283.51 1072.02 L2283.51 1084.19 L2295.53 1072.02 L2300.76 1072.02 L2290.85 1082.04 L2302.03 1097.94 L2297.26 1097.94 L2288.07 1084.86 L2283.51 1089.49 L2283.51 1097.94 L2279.28 1097.94 L2279.28 1072.02 Z" fill="#000000" fill-rule="nonzero" fill-opacity="1" /><path clip-path="url(#clip190)" d="M2304.99 1072.02 L2329.83 1072.02 L2329.83 1075.42 L2319.51 1075.42 L2319.51 1097.94 L2315.32 1097.94 L2315.32 1075.42 L2304.99 1075.42 L2304.99 1072.02 Z" fill="#000000" fill-rule="nonzero" fill-opacity="1" /><path clip-path="url(#clip190)" d="M2357.73 1072.02 L2357.73 1097.94 L2353.49 1097.94 L2353.49 1077.13 L2340.99 1097.94 L2335.53 1097.94 L2335.53 1072.02 L2339.76 1072.02 L2339.76 1092.78 L2352.24 1072.02 L2357.73 1072.02 Z" fill="#000000" fill-rule="nonzero" fill-opacity="1" /><path clip-path="url(#clip190)" d="M2370.6 1086 L2370.6 1094.54 L2376.66 1094.54 Q2379.58 1094.54 2381.11 1093.45 Q2382.63 1092.34 2382.63 1090.26 Q2382.63 1088.17 2381.11 1087.09 Q2379.58 1086 2376.66 1086 L2370.6 1086 M2370.6 1075.42 L2370.6 1082.59 L2376.2 1082.59 Q2378.61 1082.59 2380.13 1081.65 Q2381.66 1080.67 2381.66 1078.96 Q2381.66 1077.25 2380.13 1076.34 Q2378.61 1075.42 2376.2 1075.42 L2370.6 1075.42 M2366.34 1072.02 L2376.48 1072.02 Q2381.04 1072.02 2383.49 1073.68 Q2385.94 1075.35 2385.94 1078.43 Q2385.94 1080.81 2384.69 1082.22 Q2383.44 1083.61 2380.99 1083.96 Q2383.93 1084.52 2385.55 1086.27 Q2387.17 1088.03 2387.17 1090.67 Q2387.17 1094.15 2384.49 1096.04 Q2381.82 1097.94 2376.87 1097.94 L2366.34 1097.94 L2366.34 1072.02 Z" fill="#000000" fill-rule="nonzero" fill-opacity="1" /><path clip-path="url(#clip190)" d="M2394.28 1072.02 L2398.56 1072.02 L2398.56 1082.59 L2412.38 1082.59 L2412.38 1072.02 L2416.66 1072.02 L2416.66 1097.94 L2412.38 1097.94 L2412.38 1086 L2398.56 1086 L2398.56 1097.94 L2394.28 1097.94 L2394.28 1072.02 Z" fill="#000000" fill-rule="nonzero" fill-opacity="1" /><path clip-path="url(#clip190)" d="M2435.48 1075 Q2432.05 1075 2430.06 1077.69 Q2428.07 1080.35 2428.07 1085 Q2428.07 1089.65 2430.04 1092.34 Q2432.03 1095 2435.48 1095 Q2438.88 1095 2440.87 1092.32 Q2442.86 1089.63 2442.86 1085 Q2442.86 1080.4 2440.87 1077.71 Q2438.88 1075 2435.48 1075 M2435.48 1071.39 Q2441.04 1071.39 2444.21 1075 Q2447.38 1078.61 2447.38 1085 Q2447.38 1091.37 2444.21 1095 Q2441.04 1098.61 2435.48 1098.61 Q2429.9 1098.61 2426.73 1095 Q2423.58 1091.37 2423.58 1085 Q2423.58 1078.61 2426.73 1075 Q2429.9 1071.39 2435.48 1071.39 Z" fill="#000000" fill-rule="nonzero" fill-opacity="1" /><path clip-path="url(#clip190)" d="M2454.28 1097.94 L2454.28 1072.02 L2472.56 1072.02 L2472.56 1075.42 L2458.56 1075.42 L2458.56 1097.94 L2454.28 1097.94 Z" fill="#000000" fill-rule="nonzero" fill-opacity="1" /><path clip-path="url(#clip190)" d="M2489.39 1075 Q2485.97 1075 2483.98 1077.69 Q2481.98 1080.35 2481.98 1085 Q2481.98 1089.65 2483.95 1092.34 Q2485.94 1095 2489.39 1095 Q2492.79 1095 2494.79 1092.32 Q2496.78 1089.63 2496.78 1085 Q2496.78 1080.4 2494.79 1077.71 Q2492.79 1075 2489.39 1075 M2489.39 1071.39 Q2494.95 1071.39 2498.12 1075 Q2501.29 1078.61 2501.29 1085 Q2501.29 1091.37 2498.12 1095 Q2494.95 1098.61 2489.39 1098.61 Q2483.81 1098.61 2480.64 1095 Q2477.49 1091.37 2477.49 1085 Q2477.49 1078.61 2480.64 1075 Q2483.81 1071.39 2489.39 1071.39 Z" fill="#000000" fill-rule="nonzero" fill-opacity="1" /><path clip-path="url(#clip190)" d="M2545.46 1072.02 L2545.46 1097.94 L2541.22 1097.94 L2541.22 1077.13 L2528.72 1097.94 L2523.26 1097.94 L2523.26 1072.02 L2527.49 1072.02 L2527.49 1092.78 L2539.97 1072.02 L2545.46 1072.02 Z" fill="#000000" fill-rule="nonzero" fill-opacity="1" /><path clip-path="url(#clip190)" d="M2554.07 1072.02 L2560.29 1072.02 L2567.66 1089.38 L2575.04 1072.02 L2581.22 1072.02 L2581.22 1097.94 L2576.94 1097.94 L2576.94 1076.09 L2569.79 1092.96 L2565.53 1092.96 L2558.35 1076.09 L2558.35 1097.94 L2554.07 1097.94 L2554.07 1072.02 Z" fill="#000000" fill-rule="nonzero" fill-opacity="1" /><path clip-path="url(#clip190)" d="M2589.83 1072.02 L2596.06 1072.02 L2603.42 1089.38 L2610.8 1072.02 L2616.98 1072.02 L2616.98 1097.94 L2612.7 1097.94 L2612.7 1076.09 L2605.55 1092.96 L2601.29 1092.96 L2594.11 1076.09 L2594.11 1097.94 L2589.83 1097.94 L2589.83 1072.02 Z" fill="#000000" fill-rule="nonzero" fill-opacity="1" /><path clip-path="url(#clip190)" d="M2636.54 1100.35 Q2634.74 1104.98 2633.03 1106.39 Q2631.31 1107.8 2628.44 1107.8 L2625.04 1107.8 L2625.04 1104.24 L2627.54 1104.24 Q2629.3 1104.24 2630.27 1103.4 Q2631.24 1102.57 2632.42 1099.47 L2633.19 1097.52 L2622.7 1072.02 L2627.22 1072.02 L2635.32 1092.29 L2643.42 1072.02 L2647.93 1072.02 L2636.54 1100.35 Z" fill="#000000" fill-rule="nonzero" fill-opacity="1" /><path clip-path="url(#clip190)" d="M2653.65 1072.02 L2657.93 1072.02 L2657.93 1082.59 L2671.75 1082.59 L2671.75 1072.02 L2676.03 1072.02 L2676.03 1097.94 L2671.75 1097.94 L2671.75 1086 L2657.93 1086 L2657.93 1097.94 L2653.65 1097.94 L2653.65 1072.02 Z" fill="#000000" fill-rule="nonzero" fill-opacity="1" /><path clip-path="url(#clip190)" d="M2706.84 1072.02 L2706.84 1097.94 L2702.61 1097.94 L2702.61 1077.13 L2690.11 1097.94 L2684.65 1097.94 L2684.65 1072.02 L2688.88 1072.02 L2688.88 1092.78 L2701.36 1072.02 L2706.84 1072.02 Z" fill="#000000" fill-rule="nonzero" fill-opacity="1" /><path clip-path="url(#clip190)" d="M2712.54 1072.02 L2737.38 1072.02 L2737.38 1075.42 L2727.05 1075.42 L2727.05 1097.94 L2722.86 1097.94 L2722.86 1075.42 L2712.54 1075.42 L2712.54 1072.02 Z" fill="#000000" fill-rule="nonzero" fill-opacity="1" /><path clip-path="url(#clip190)" d="M2765.41 1083.91 L2765.41 1086 L2745.83 1086 Q2746.1 1090.4 2748.46 1092.71 Q2750.85 1095 2755.08 1095 Q2757.54 1095 2759.83 1094.4 Q2762.15 1093.8 2764.41 1092.59 L2764.41 1096.62 Q2762.12 1097.59 2759.71 1098.1 Q2757.31 1098.61 2754.83 1098.61 Q2748.63 1098.61 2744.99 1095 Q2741.38 1091.39 2741.38 1085.23 Q2741.38 1078.87 2744.81 1075.14 Q2748.26 1071.39 2754.09 1071.39 Q2759.32 1071.39 2762.35 1074.77 Q2765.41 1078.13 2765.41 1083.91 M2761.15 1082.66 Q2761.1 1079.17 2759.18 1077.09 Q2757.28 1075 2754.14 1075 Q2750.57 1075 2748.42 1077.02 Q2746.29 1079.03 2745.96 1082.69 L2761.15 1082.66 Z" fill="#000000" fill-rule="nonzero" fill-opacity="1" /><path clip-path="url(#clip190)" d="M2769.32 1072.02 L2794.16 1072.02 L2794.16 1075.42 L2783.83 1075.42 L2783.83 1097.94 L2779.65 1097.94 L2779.65 1075.42 L2769.32 1075.42 L2769.32 1072.02 Z" fill="#000000" fill-rule="nonzero" fill-opacity="1" /><path clip-path="url(#clip190)" d="M2811.8 1084.91 Q2806.64 1084.91 2804.64 1086.09 Q2802.65 1087.27 2802.65 1090.12 Q2802.65 1092.39 2804.14 1093.73 Q2805.64 1095.05 2808.21 1095.05 Q2811.75 1095.05 2813.88 1092.55 Q2816.03 1090.02 2816.03 1085.86 L2816.03 1084.91 L2811.8 1084.91 M2820.29 1083.15 L2820.29 1097.94 L2816.03 1097.94 L2816.03 1094.01 Q2814.58 1096.37 2812.4 1097.5 Q2810.22 1098.61 2807.08 1098.61 Q2803.09 1098.61 2800.73 1096.39 Q2798.39 1094.15 2798.39 1090.4 Q2798.39 1086.02 2801.31 1083.8 Q2804.25 1081.58 2810.06 1081.58 L2816.03 1081.58 L2816.03 1081.16 Q2816.03 1078.22 2814.09 1076.62 Q2812.17 1075 2808.67 1075 Q2806.45 1075 2804.34 1075.53 Q2802.24 1076.07 2800.29 1077.13 L2800.29 1073.2 Q2802.63 1072.29 2804.83 1071.85 Q2807.03 1071.39 2809.11 1071.39 Q2814.74 1071.39 2817.52 1074.31 Q2820.29 1077.22 2820.29 1083.15 Z" fill="#000000" fill-rule="nonzero" fill-opacity="1" /><path clip-path="url(#clip190)" d="M2854.37 1061.97 Q2851.27 1067.29 2849.76 1072.5 Q2848.26 1077.71 2848.26 1083.06 Q2848.26 1088.4 2849.76 1093.66 Q2851.29 1098.89 2854.37 1104.19 L2850.66 1104.19 Q2847.19 1098.75 2845.45 1093.5 Q2843.74 1088.24 2843.74 1083.06 Q2843.74 1077.9 2845.45 1072.66 Q2847.17 1067.43 2850.66 1061.97 L2854.37 1061.97 Z" fill="#000000" fill-rule="nonzero" fill-opacity="1" /><path clip-path="url(#clip190)" d="M2863.28 1063.38 L2881.64 1063.38 L2881.64 1067.32 L2867.56 1067.32 L2867.56 1075.79 Q2868.58 1075.44 2869.6 1075.28 Q2870.62 1075.09 2871.64 1075.09 Q2877.42 1075.09 2880.8 1078.27 Q2884.18 1081.44 2884.18 1086.85 Q2884.18 1092.43 2880.71 1095.53 Q2877.24 1098.61 2870.92 1098.61 Q2868.74 1098.61 2866.47 1098.24 Q2864.23 1097.87 2861.82 1097.13 L2861.82 1092.43 Q2863.9 1093.57 2866.13 1094.12 Q2868.35 1094.68 2870.83 1094.68 Q2874.83 1094.68 2877.17 1092.57 Q2879.51 1090.46 2879.51 1086.85 Q2879.51 1083.24 2877.17 1081.14 Q2874.83 1079.03 2870.83 1079.03 Q2868.95 1079.03 2867.08 1079.45 Q2865.22 1079.86 2863.28 1080.74 L2863.28 1063.38 Z" fill="#000000" fill-rule="nonzero" fill-opacity="1" /><path clip-path="url(#clip190)" d="M2903.39 1066.46 Q2899.78 1066.46 2897.95 1070.03 Q2896.15 1073.57 2896.15 1080.7 Q2896.15 1087.8 2897.95 1091.37 Q2899.78 1094.91 2903.39 1094.91 Q2907.03 1094.91 2908.83 1091.37 Q2910.66 1087.8 2910.66 1080.7 Q2910.66 1073.57 2908.83 1070.03 Q2907.03 1066.46 2903.39 1066.46 M2903.39 1062.76 Q2909.2 1062.76 2912.26 1067.36 Q2915.34 1071.95 2915.34 1080.7 Q2915.34 1089.42 2912.26 1094.03 Q2909.2 1098.61 2903.39 1098.61 Q2897.58 1098.61 2894.51 1094.03 Q2891.45 1089.42 2891.45 1080.7 Q2891.45 1071.95 2894.51 1067.36 Q2897.58 1062.76 2903.39 1062.76 Z" fill="#000000" fill-rule="nonzero" fill-opacity="1" /><path clip-path="url(#clip190)" d="M2923.56 1092.06 L2928.44 1092.06 L2928.44 1097.94 L2923.56 1097.94 L2923.56 1092.06 Z" fill="#000000" fill-rule="nonzero" fill-opacity="1" /><path clip-path="url(#clip190)" d="M2948.63 1066.46 Q2945.01 1066.46 2943.19 1070.03 Q2941.38 1073.57 2941.38 1080.7 Q2941.38 1087.8 2943.19 1091.37 Q2945.01 1094.91 2948.63 1094.91 Q2952.26 1094.91 2954.07 1091.37 Q2955.89 1087.8 2955.89 1080.7 Q2955.89 1073.57 2954.07 1070.03 Q2952.26 1066.46 2948.63 1066.46 M2948.63 1062.76 Q2954.44 1062.76 2957.49 1067.36 Q2960.57 1071.95 2960.57 1080.7 Q2960.57 1089.42 2957.49 1094.03 Q2954.44 1098.61 2948.63 1098.61 Q2942.82 1098.61 2939.74 1094.03 Q2936.68 1089.42 2936.68 1080.7 Q2936.68 1071.95 2939.74 1067.36 Q2942.82 1062.76 2948.63 1062.76 Z" fill="#000000" fill-rule="nonzero" fill-opacity="1" /><path clip-path="url(#clip190)" d="M2998.19 1082.73 Q2996.17 1082.73 2995.01 1084.45 Q2993.88 1086.16 2993.88 1089.21 Q2993.88 1092.22 2995.01 1093.96 Q2996.17 1095.67 2998.19 1095.67 Q3000.15 1095.67 3001.29 1093.96 Q3002.44 1092.22 3002.44 1089.21 Q3002.44 1086.18 3001.29 1084.47 Q3000.15 1082.73 2998.19 1082.73 M2998.19 1079.79 Q3001.84 1079.79 3004 1082.34 Q3006.15 1084.89 3006.15 1089.21 Q3006.15 1093.54 3003.97 1096.09 Q3001.82 1098.61 2998.19 1098.61 Q2994.48 1098.61 2992.33 1096.09 Q2990.18 1093.54 2990.18 1089.21 Q2990.18 1084.86 2992.33 1082.34 Q2994.5 1079.79 2998.19 1079.79 M2974.3 1065.7 Q2972.31 1065.7 2971.15 1067.43 Q2970.01 1069.15 2970.01 1072.15 Q2970.01 1075.21 2971.15 1076.92 Q2972.28 1078.64 2974.3 1078.64 Q2976.31 1078.64 2977.44 1076.92 Q2978.6 1075.21 2978.6 1072.15 Q2978.6 1069.17 2977.44 1067.43 Q2976.29 1065.7 2974.3 1065.7 M2995.2 1062.76 L2998.9 1062.76 L2977.28 1098.61 L2973.58 1098.61 L2995.2 1062.76 M2974.3 1062.76 Q2977.95 1062.76 2980.13 1065.3 Q2982.31 1067.83 2982.31 1072.15 Q2982.31 1076.53 2980.13 1079.05 Q2977.98 1081.58 2974.3 1081.58 Q2970.62 1081.58 2968.46 1079.05 Q2966.33 1076.51 2966.33 1072.15 Q2966.33 1067.85 2968.49 1065.3 Q2970.64 1062.76 2974.3 1062.76 Z" fill="#000000" fill-rule="nonzero" fill-opacity="1" /><path clip-path="url(#clip190)" d="M3012.56 1061.97 L3016.26 1061.97 Q3019.74 1067.43 3021.45 1072.66 Q3023.19 1077.9 3023.19 1083.06 Q3023.19 1088.24 3021.45 1093.5 Q3019.74 1098.75 3016.26 1104.19 L3012.56 1104.19 Q3015.64 1098.89 3017.14 1093.66 Q3018.67 1088.4 3018.67 1083.06 Q3018.67 1077.71 3017.14 1072.5 Q3015.64 1067.29 3012.56 1061.97 Z" fill="#000000" fill-rule="nonzero" fill-opacity="1" /></svg>
